STARTFONT 2.1
COMMENT Exported by Fony v1.4.7
FONT 7Segment36
SIZE 48 96 96
FONTBOUNDINGBOX 39 47 0 -2
STARTPROPERTIES 6
COPYRIGHT ""
RESOLUTION_X 96
RESOLUTION_Y 96
FONT_ASCENT 46
FONT_DESCENT 2
DEFAULT_CHAR 0
ENDPROPERTIES
CHARS 256
STARTCHAR 000
ENCODING 0
SWIDTH 1080 0
DWIDTH 15 0
BBX 0 0 0 0
BITMAP
ENDCHAR
STARTCHAR 001
ENCODING 1
SWIDTH 864 0
DWIDTH 12 0
BBX 10 32 1 -1
BITMAP
FFC0
FFC0
FFC0
C0C0
C0C0
C0C0
C0C0
C0C0
C0C0
C0C0
C0C0
C0C0
C0C0
C0C0
C0C0
C0C0
C0C0
C0C0
C0C0
C0C0
C0C0
C0C0
C0C0
C0C0
C0C0
C0C0
C0C0
C0C0
C0C0
C0C0
FFC0
FFC0
ENDCHAR
STARTCHAR 002
ENCODING 2
SWIDTH 1224 0
DWIDTH 17 0
BBX 0 0 0 0
BITMAP
ENDCHAR
STARTCHAR 003
ENCODING 3
SWIDTH 864 0
DWIDTH 12 0
BBX 10 32 1 -1
BITMAP
FFC0
FFC0
FFC0
C0C0
C0C0
C0C0
C0C0
C0C0
C0C0
C0C0
C0C0
C0C0
C0C0
C0C0
C0C0
C0C0
C0C0
C0C0
C0C0
C0C0
C0C0
C0C0
C0C0
C0C0
C0C0
C0C0
C0C0
C0C0
C0C0
C0C0
FFC0
FFC0
ENDCHAR
STARTCHAR 004
ENCODING 4
SWIDTH 864 0
DWIDTH 12 0
BBX 10 32 1 -1
BITMAP
FFC0
FFC0
FFC0
C0C0
C0C0
C0C0
C0C0
C0C0
C0C0
C0C0
C0C0
C0C0
C0C0
C0C0
C0C0
C0C0
C0C0
C0C0
C0C0
C0C0
C0C0
C0C0
C0C0
C0C0
C0C0
C0C0
C0C0
C0C0
C0C0
C0C0
FFC0
FFC0
ENDCHAR
STARTCHAR 005
ENCODING 5
SWIDTH 864 0
DWIDTH 12 0
BBX 10 32 1 -1
BITMAP
FFC0
FFC0
FFC0
C0C0
C0C0
C0C0
C0C0
C0C0
C0C0
C0C0
C0C0
C0C0
C0C0
C0C0
C0C0
C0C0
C0C0
C0C0
C0C0
C0C0
C0C0
C0C0
C0C0
C0C0
C0C0
C0C0
C0C0
C0C0
C0C0
C0C0
FFC0
FFC0
ENDCHAR
STARTCHAR 006
ENCODING 6
SWIDTH 864 0
DWIDTH 12 0
BBX 10 32 1 -1
BITMAP
FFC0
FFC0
FFC0
C0C0
C0C0
C0C0
C0C0
C0C0
C0C0
C0C0
C0C0
C0C0
C0C0
C0C0
C0C0
C0C0
C0C0
C0C0
C0C0
C0C0
C0C0
C0C0
C0C0
C0C0
C0C0
C0C0
C0C0
C0C0
C0C0
C0C0
FFC0
FFC0
ENDCHAR
STARTCHAR 007
ENCODING 7
SWIDTH 864 0
DWIDTH 12 0
BBX 10 32 1 -1
BITMAP
FFC0
FFC0
FFC0
C0C0
C0C0
C0C0
C0C0
C0C0
C0C0
C0C0
C0C0
C0C0
C0C0
C0C0
C0C0
C0C0
C0C0
C0C0
C0C0
C0C0
C0C0
C0C0
C0C0
C0C0
C0C0
C0C0
C0C0
C0C0
C0C0
C0C0
FFC0
FFC0
ENDCHAR
STARTCHAR 008
ENCODING 8
SWIDTH 864 0
DWIDTH 12 0
BBX 10 32 1 -1
BITMAP
FFC0
FFC0
FFC0
C0C0
C0C0
C0C0
C0C0
C0C0
C0C0
C0C0
C0C0
C0C0
C0C0
C0C0
C0C0
C0C0
C0C0
C0C0
C0C0
C0C0
C0C0
C0C0
C0C0
C0C0
C0C0
C0C0
C0C0
C0C0
C0C0
C0C0
FFC0
FFC0
ENDCHAR
STARTCHAR 009
ENCODING 9
SWIDTH 0 0
DWIDTH 0 0
BBX 0 0 0 0
BITMAP
ENDCHAR
STARTCHAR 010
ENCODING 10
SWIDTH 0 0
DWIDTH 0 0
BBX 0 0 0 0
BITMAP
ENDCHAR
STARTCHAR 011
ENCODING 11
SWIDTH 864 0
DWIDTH 12 0
BBX 10 32 1 -1
BITMAP
FFC0
FFC0
FFC0
C0C0
C0C0
C0C0
C0C0
C0C0
C0C0
C0C0
C0C0
C0C0
C0C0
C0C0
C0C0
C0C0
C0C0
C0C0
C0C0
C0C0
C0C0
C0C0
C0C0
C0C0
C0C0
C0C0
C0C0
C0C0
C0C0
C0C0
FFC0
FFC0
ENDCHAR
STARTCHAR 012
ENCODING 12
SWIDTH 1944 0
DWIDTH 27 0
BBX 23 22 2 -1
BITMAP
003000
007800
00FC00
01FE00
03FF00
07FF80
0FFFC0
1FFFE0
3FFFF0
7FFFF8
FFFFFC
FFFFFE
FEFDFE
FCFCFE
F8FC7E
F0FC3E
E0FC1E
C0FC0E
80FC06
00FC02
00FC00
00FC00
ENDCHAR
STARTCHAR 013
ENCODING 13
SWIDTH 0 0
DWIDTH 0 0
BBX 0 0 0 0
BITMAP
ENDCHAR
STARTCHAR 014
ENCODING 14
SWIDTH 864 0
DWIDTH 12 0
BBX 10 32 1 -1
BITMAP
FFC0
FFC0
FFC0
C0C0
C0C0
C0C0
C0C0
C0C0
C0C0
C0C0
C0C0
C0C0
C0C0
C0C0
C0C0
C0C0
C0C0
C0C0
C0C0
C0C0
C0C0
C0C0
C0C0
C0C0
C0C0
C0C0
C0C0
C0C0
C0C0
C0C0
FFC0
FFC0
ENDCHAR
STARTCHAR 015
ENCODING 15
SWIDTH 864 0
DWIDTH 12 0
BBX 10 32 1 -1
BITMAP
FFC0
FFC0
FFC0
C0C0
C0C0
C0C0
C0C0
C0C0
C0C0
C0C0
C0C0
C0C0
C0C0
C0C0
C0C0
C0C0
C0C0
C0C0
C0C0
C0C0
C0C0
C0C0
C0C0
C0C0
C0C0
C0C0
C0C0
C0C0
C0C0
C0C0
FFC0
FFC0
ENDCHAR
STARTCHAR 016
ENCODING 16
SWIDTH 864 0
DWIDTH 12 0
BBX 10 32 1 -1
BITMAP
FFC0
FFC0
FFC0
C0C0
C0C0
C0C0
C0C0
C0C0
C0C0
C0C0
C0C0
C0C0
C0C0
C0C0
C0C0
C0C0
C0C0
C0C0
C0C0
C0C0
C0C0
C0C0
C0C0
C0C0
C0C0
C0C0
C0C0
C0C0
C0C0
C0C0
FFC0
FFC0
ENDCHAR
STARTCHAR 017
ENCODING 17
SWIDTH 864 0
DWIDTH 12 0
BBX 10 32 1 -1
BITMAP
FFC0
FFC0
FFC0
C0C0
C0C0
C0C0
C0C0
C0C0
C0C0
C0C0
C0C0
C0C0
C0C0
C0C0
C0C0
C0C0
C0C0
C0C0
C0C0
C0C0
C0C0
C0C0
C0C0
C0C0
C0C0
C0C0
C0C0
C0C0
C0C0
C0C0
FFC0
FFC0
ENDCHAR
STARTCHAR 018
ENCODING 18
SWIDTH 864 0
DWIDTH 12 0
BBX 10 32 1 -1
BITMAP
FFC0
FFC0
FFC0
C0C0
C0C0
C0C0
C0C0
C0C0
C0C0
C0C0
C0C0
C0C0
C0C0
C0C0
C0C0
C0C0
C0C0
C0C0
C0C0
C0C0
C0C0
C0C0
C0C0
C0C0
C0C0
C0C0
C0C0
C0C0
C0C0
C0C0
FFC0
FFC0
ENDCHAR
STARTCHAR 019
ENCODING 19
SWIDTH 864 0
DWIDTH 12 0
BBX 10 32 1 -1
BITMAP
FFC0
FFC0
FFC0
C0C0
C0C0
C0C0
C0C0
C0C0
C0C0
C0C0
C0C0
C0C0
C0C0
C0C0
C0C0
C0C0
C0C0
C0C0
C0C0
C0C0
C0C0
C0C0
C0C0
C0C0
C0C0
C0C0
C0C0
C0C0
C0C0
C0C0
FFC0
FFC0
ENDCHAR
STARTCHAR 020
ENCODING 20
SWIDTH 864 0
DWIDTH 12 0
BBX 10 32 1 -1
BITMAP
FFC0
FFC0
FFC0
C0C0
C0C0
C0C0
C0C0
C0C0
C0C0
C0C0
C0C0
C0C0
C0C0
C0C0
C0C0
C0C0
C0C0
C0C0
C0C0
C0C0
C0C0
C0C0
C0C0
C0C0
C0C0
C0C0
C0C0
C0C0
C0C0
C0C0
FFC0
FFC0
ENDCHAR
STARTCHAR 021
ENCODING 21
SWIDTH 864 0
DWIDTH 12 0
BBX 10 32 1 -1
BITMAP
FFC0
FFC0
FFC0
C0C0
C0C0
C0C0
C0C0
C0C0
C0C0
C0C0
C0C0
C0C0
C0C0
C0C0
C0C0
C0C0
C0C0
C0C0
C0C0
C0C0
C0C0
C0C0
C0C0
C0C0
C0C0
C0C0
C0C0
C0C0
C0C0
C0C0
FFC0
FFC0
ENDCHAR
STARTCHAR 022
ENCODING 22
SWIDTH 864 0
DWIDTH 12 0
BBX 10 32 1 -1
BITMAP
FFC0
FFC0
FFC0
C0C0
C0C0
C0C0
C0C0
C0C0
C0C0
C0C0
C0C0
C0C0
C0C0
C0C0
C0C0
C0C0
C0C0
C0C0
C0C0
C0C0
C0C0
C0C0
C0C0
C0C0
C0C0
C0C0
C0C0
C0C0
C0C0
C0C0
FFC0
FFC0
ENDCHAR
STARTCHAR 023
ENCODING 23
SWIDTH 864 0
DWIDTH 12 0
BBX 10 32 1 -1
BITMAP
FFC0
FFC0
FFC0
C0C0
C0C0
C0C0
C0C0
C0C0
C0C0
C0C0
C0C0
C0C0
C0C0
C0C0
C0C0
C0C0
C0C0
C0C0
C0C0
C0C0
C0C0
C0C0
C0C0
C0C0
C0C0
C0C0
C0C0
C0C0
C0C0
C0C0
FFC0
FFC0
ENDCHAR
STARTCHAR 024
ENCODING 24
SWIDTH 864 0
DWIDTH 12 0
BBX 10 32 1 -1
BITMAP
FFC0
FFC0
FFC0
C0C0
C0C0
C0C0
C0C0
C0C0
C0C0
C0C0
C0C0
C0C0
C0C0
C0C0
C0C0
C0C0
C0C0
C0C0
C0C0
C0C0
C0C0
C0C0
C0C0
C0C0
C0C0
C0C0
C0C0
C0C0
C0C0
C0C0
FFC0
FFC0
ENDCHAR
STARTCHAR 025
ENCODING 25
SWIDTH 864 0
DWIDTH 12 0
BBX 10 32 1 -1
BITMAP
FFC0
FFC0
FFC0
C0C0
C0C0
C0C0
C0C0
C0C0
C0C0
C0C0
C0C0
C0C0
C0C0
C0C0
C0C0
C0C0
C0C0
C0C0
C0C0
C0C0
C0C0
C0C0
C0C0
C0C0
C0C0
C0C0
C0C0
C0C0
C0C0
C0C0
FFC0
FFC0
ENDCHAR
STARTCHAR 026
ENCODING 26
SWIDTH 864 0
DWIDTH 12 0
BBX 10 32 1 -1
BITMAP
FFC0
FFC0
FFC0
C0C0
C0C0
C0C0
C0C0
C0C0
C0C0
C0C0
C0C0
C0C0
C0C0
C0C0
C0C0
C0C0
C0C0
C0C0
C0C0
C0C0
C0C0
C0C0
C0C0
C0C0
C0C0
C0C0
C0C0
C0C0
C0C0
C0C0
FFC0
FFC0
ENDCHAR
STARTCHAR 027
ENCODING 27
SWIDTH 864 0
DWIDTH 12 0
BBX 10 32 1 -1
BITMAP
FFC0
FFC0
FFC0
C0C0
C0C0
C0C0
C0C0
C0C0
C0C0
C0C0
C0C0
C0C0
C0C0
C0C0
C0C0
C0C0
C0C0
C0C0
C0C0
C0C0
C0C0
C0C0
C0C0
C0C0
C0C0
C0C0
C0C0
C0C0
C0C0
C0C0
FFC0
FFC0
ENDCHAR
STARTCHAR 028
ENCODING 28
SWIDTH 0 0
DWIDTH 0 0
BBX 0 0 0 0
BITMAP
ENDCHAR
STARTCHAR 029
ENCODING 29
SWIDTH 0 0
DWIDTH 0 0
BBX 0 0 0 0
BITMAP
ENDCHAR
STARTCHAR 030
ENCODING 30
SWIDTH 0 0
DWIDTH 0 0
BBX 0 0 0 0
BITMAP
ENDCHAR
STARTCHAR 031
ENCODING 31
SWIDTH 0 0
DWIDTH 0 0
BBX 0 0 0 0
BITMAP
ENDCHAR
STARTCHAR 032
ENCODING 32
SWIDTH 720 0
DWIDTH 10 0
BBX 0 0 0 0
BITMAP
ENDCHAR
STARTCHAR 033
ENCODING 33
SWIDTH 2808 0
DWIDTH 39 0
BBX 0 0 0 0
BITMAP
ENDCHAR
STARTCHAR 034
ENCODING 34
SWIDTH 936 0
DWIDTH 13 0
BBX 9 9 1 16
BITMAP
E380
E380
E380
E380
E380
E380
E380
E380
4100
ENDCHAR
STARTCHAR 035
ENCODING 35
SWIDTH 1440 0
DWIDTH 20 0
BBX 19 26 0 -1
BITMAP
01C380
01C380
01C380
038700
038700
038700
038700
3FFFE0
3FFFE0
3FFFE0
070E00
070E00
070E00
0E1C00
0E1C00
0E1C00
FFFF80
FFFF80
FFFF80
1C3800
1C3800
1C3800
1C3800
3C7000
387000
387000
ENDCHAR
STARTCHAR 036
ENCODING 36
SWIDTH 1440 0
DWIDTH 20 0
BBX 17 30 1 -2
BITMAP
018000
018000
018000
07F000
1FFC00
3FFE00
3D9E00
798F00
718700
718000
718000
718000
798000
3D8000
1FC000
0FF800
03FE00
01BF00
018700
018380
018380
E18380
E18380
F18380
718700
799F00
3FFE00
1FFC00
07F000
018000
ENDCHAR
STARTCHAR 037
ENCODING 37
SWIDTH 2304 0
DWIDTH 32 0
BBX 28 26 2 -1
BITMAP
0F000C00
3FC01800
70E01800
70E03000
E0707000
E0706000
E070E000
E070C000
E0718000
E0718000
70E30000
70E30000
3FC61F00
0F063FC0
000C70E0
000C70E0
0018E070
0018E070
0030E070
0070E070
0060E070
00E0E070
00C070E0
018070E0
01803FC0
03000F00
ENDCHAR
STARTCHAR 038
ENCODING 38
SWIDTH 1728 0
DWIDTH 24 0
BBX 20 26 2 -1
BITMAP
01F000
07F800
0FFC00
1E1E00
1C0E00
1C0E00
1C0E00
1E0E00
0E1C00
0F7800
07F000
07E000
0FE000
3EE0E0
78F0E0
7078E0
E03CE0
E01FC0
E00FC0
E00FC0
F00780
7007C0
7C1FE0
3FFEF0
1FFCE0
07E040
ENDCHAR
STARTCHAR 039
ENCODING 39
SWIDTH 504 0
DWIDTH 7 0
BBX 3 9 2 16
BITMAP
E0
E0
E0
E0
E0
E0
E0
E0
40
ENDCHAR
STARTCHAR 040
ENCODING 40
SWIDTH 864 0
DWIDTH 12 0
BBX 9 27 2 -2
BITMAP
0380
0700
0600
0E00
1C00
1C00
3800
3800
3000
7000
7000
7000
E000
E000
E000
E000
E000
E000
E000
E000
E000
7000
7000
7000
7000
3800
3800
ENDCHAR
STARTCHAR 041
ENCODING 41
SWIDTH 864 0
DWIDTH 12 0
BBX 9 27 0 -2
BITMAP
E000
7000
3000
3800
1C00
1C00
0E00
0E00
0600
0700
0700
0700
0380
0380
0380
0380
0380
0380
0380
0380
0380
0700
0700
0700
0700
0E00
0E00
ENDCHAR
STARTCHAR 042
ENCODING 42
SWIDTH 1008 0
DWIDTH 14 0
BBX 13 11 1 14
BITMAP
0700
0700
0700
6730
FFF8
3FE0
0F80
1DC0
3DE0
38E0
1040
ENDCHAR
STARTCHAR 043
ENCODING 43
SWIDTH 1512 0
DWIDTH 21 0
BBX 17 17 2 3
BITMAP
01C000
01C000
01C000
01C000
01C000
01C000
01C000
FFFF80
FFFF80
FFFF80
01C000
01C000
01C000
01C000
01C000
01C000
01C000
ENDCHAR
STARTCHAR 044
ENCODING 44
SWIDTH 720 0
DWIDTH 10 0
BBX 3 5 3 -2
BITMAP
E0
E0
E0
E0
60
ENDCHAR
STARTCHAR 045
ENCODING 45
SWIDTH 2808 0
DWIDTH 39 0
BBX 25 4 7 20
BITMAP
7FFFFF00
FFFFFF80
FFFFFF80
7FFFFF00
ENDCHAR
STARTCHAR 046
ENCODING 46
SWIDTH 0 0
DWIDTH 0 0
BBX 0 0 0 0
BITMAP
ENDCHAR
STARTCHAR 047
ENCODING 47
SWIDTH 720 0
DWIDTH 10 0
BBX 10 26 0 -1
BITMAP
00C0
01C0
0180
0180
0180
0300
0300
0300
0600
0600
0600
0C00
0C00
0C00
0C00
1800
1800
1800
3000
3000
3000
6000
6000
6000
E000
C000
ENDCHAR
STARTCHAR 048
ENCODING 48
SWIDTH 2808 0
DWIDTH 39 0
BBX 29 48 5 -2
BITMAP
1FFFFFC0
3FFFFFE0
5FFFFFC0
EFFFFF98
F0000038
F0000078
F0000078
F0000078
F0000078
F0000078
F0000078
F0000078
F0000078
F0000078
F0000078
F0000078
F0000078
F0000078
F0000078
F0000078
F0000078
E0000038
C0000018
80000008
80000000
C0000018
E0000038
F0000078
F0000078
F0000078
F0000078
F0000078
F0000078
F0000078
F0000078
F0000078
F0000078
F0000078
F0000078
F0000078
F0000078
F0000078
F0000078
F0000038
EFFFFF98
5FFFFFC0
3FFFFFE0
1FFFFFC0
ENDCHAR
STARTCHAR 049
ENCODING 49
SWIDTH 2808 0
DWIDTH 39 0
BBX 4 42 30 1
BITMAP
30
70
F0
F0
F0
F0
F0
F0
F0
F0
F0
F0
F0
F0
F0
F0
F0
F0
70
30
10
00
30
70
F0
F0
F0
F0
F0
F0
F0
F0
F0
F0
F0
F0
F0
F0
F0
F0
70
30
ENDCHAR
STARTCHAR 050
ENCODING 50
SWIDTH 2808 0
DWIDTH 39 0
BBX 29 48 5 -2
BITMAP
1FFFFFC0
3FFFFFE0
1FFFFFC0
0FFFFF98
00000038
00000078
00000078
00000078
00000078
00000078
00000078
00000078
00000078
00000078
00000078
00000078
00000078
00000078
00000078
00000078
00000078
00000038
1FFFFFD8
3FFFFFE8
BFFFFFE0
DFFFFFC0
E0000000
F0000000
F0000000
F0000000
F0000000
F0000000
F0000000
F0000000
F0000000
F0000000
F0000000
F0000000
F0000000
F0000000
F0000000
F0000000
F0000000
F0000000
EFFFFF80
5FFFFFC0
3FFFFFE0
1FFFFFC0
ENDCHAR
STARTCHAR 051
ENCODING 51
SWIDTH 2808 0
DWIDTH 39 0
BBX 27 48 7 -2
BITMAP
7FFFFF00
FFFFFF80
7FFFFF00
3FFFFE60
000000E0
000001E0
000001E0
000001E0
000001E0
000001E0
000001E0
000001E0
000001E0
000001E0
000001E0
000001E0
000001E0
000001E0
000001E0
000001E0
000001E0
000000E0
7FFFFF60
FFFFFFA0
FFFFFF80
7FFFFF60
000000E0
000001E0
000001E0
000001E0
000001E0
000001E0
000001E0
000001E0
000001E0
000001E0
000001E0
000001E0
000001E0
000001E0
000001E0
000001E0
000001E0
000000E0
3FFFFE60
7FFFFF00
FFFFFF80
7FFFFF00
ENDCHAR
STARTCHAR 052
ENCODING 52
SWIDTH 2808 0
DWIDTH 39 0
BBX 29 43 5 1
BITMAP
40000000
E0000018
F0000038
F0000078
F0000078
F0000078
F0000078
F0000078
F0000078
F0000078
F0000078
F0000078
F0000078
F0000078
F0000078
F0000078
F0000078
F0000078
F0000078
E0000038
DFFFFFD8
BFFFFFE8
3FFFFFE0
1FFFFFD8
00000038
00000078
00000078
00000078
00000078
00000078
00000078
00000078
00000078
00000078
00000078
00000078
00000078
00000078
00000078
00000078
00000078
00000038
00000018
ENDCHAR
STARTCHAR 053
ENCODING 53
SWIDTH 2808 0
DWIDTH 39 0
BBX 29 48 5 -2
BITMAP
1FFFFFC0
3FFFFFE0
5FFFFFC0
EFFFFF80
F0000000
F0000000
F0000000
F0000000
F0000000
F0000000
F0000000
F0000000
F0000000
F0000000
F0000000
F0000000
F0000000
F0000000
F0000000
F0000000
F0000000
E0000000
DFFFFFC0
BFFFFFE0
3FFFFFE0
1FFFFFD8
00000038
00000078
00000078
00000078
00000078
00000078
00000078
00000078
00000078
00000078
00000078
00000078
00000078
00000078
00000078
00000078
00000078
00000038
0FFFFF98
1FFFFFC0
3FFFFFE0
1FFFFFC0
ENDCHAR
STARTCHAR 054
ENCODING 54
SWIDTH 2808 0
DWIDTH 39 0
BBX 29 48 5 -2
BITMAP
1FFFFFC0
3FFFFFE0
5FFFFFC0
EFFFFF80
F0000000
F0000000
F0000000
F0000000
F0000000
F0000000
F0000000
F0000000
F0000000
F0000000
F0000000
F0000000
F0000000
F0000000
F0000000
F0000000
F0000000
E0000000
DFFFFFC0
BFFFFFE0
BFFFFFE0
DFFFFFD8
E0000038
F0000078
F0000078
F0000078
F0000078
F0000078
F0000078
F0000078
F0000078
F0000078
F0000078
F0000078
F0000078
F0000078
F0000078
F0000078
F0000078
F0000038
EFFFFF98
5FFFFFC0
3FFFFFE0
1FFFFFC0
ENDCHAR
STARTCHAR 055
ENCODING 55
SWIDTH 2808 0
DWIDTH 39 0
BBX 29 45 5 1
BITMAP
1FFFFFC0
3FFFFFE0
5FFFFFC0
EFFFFF98
F0000038
F0000078
F0000078
F0000078
F0000078
F0000078
F0000078
F0000078
F0000078
F0000078
F0000078
F0000078
F0000078
F0000078
F0000078
F0000078
F0000078
E0000038
C0000018
80000008
00000000
00000018
00000038
00000078
00000078
00000078
00000078
00000078
00000078
00000078
00000078
00000078
00000078
00000078
00000078
00000078
00000078
00000078
00000078
00000038
00000018
ENDCHAR
STARTCHAR 056
ENCODING 56
SWIDTH 2808 0
DWIDTH 39 0
BBX 29 48 5 -2
BITMAP
1FFFFFC0
3FFFFFE0
5FFFFFC0
EFFFFF98
F0000038
F0000078
F0000078
F0000078
F0000078
F0000078
F0000078
F0000078
F0000078
F0000078
F0000078
F0000078
F0000078
F0000078
F0000078
F0000078
F0000078
E0000038
DFFFFFD8
BFFFFFE8
BFFFFFE0
DFFFFFD8
E0000038
F0000078
F0000078
F0000078
F0000078
F0000078
F0000078
F0000078
F0000078
F0000078
F0000078
F0000078
F0000078
F0000078
F0000078
F0000078
F0000078
F0000038
EFFFFF98
5FFFFFC0
3FFFFFE0
1FFFFFC0
ENDCHAR
STARTCHAR 057
ENCODING 57
SWIDTH 2808 0
DWIDTH 39 0
BBX 29 48 5 -2
BITMAP
1FFFFFC0
3FFFFFE0
5FFFFFC0
EFFFFF98
F0000038
F0000078
F0000078
F0000078
F0000078
F0000078
F0000078
F0000078
F0000078
F0000078
F0000078
F0000078
F0000078
F0000078
F0000078
F0000078
F0000078
E0000038
DFFFFFD8
BFFFFFE8
3FFFFFE0
1FFFFFD8
00000038
00000078
00000078
00000078
00000078
00000078
00000078
00000078
00000078
00000078
00000078
00000078
00000078
00000078
00000078
00000078
00000078
00000038
0FFFFF98
1FFFFFC0
3FFFFFE0
1FFFFFC0
ENDCHAR
STARTCHAR 058
ENCODING 58
SWIDTH 720 0
DWIDTH 10 0
BBX 6 25 2 9
BITMAP
78
F8
FC
FC
F8
30
00
00
00
00
00
00
00
00
00
00
00
00
00
00
78
FC
FC
FC
78
ENDCHAR
STARTCHAR 059
ENCODING 59
SWIDTH 720 0
DWIDTH 10 0
BBX 3 20 3 -2
BITMAP
E0
E0
E0
E0
00
00
00
00
00
00
00
00
00
00
00
E0
E0
E0
E0
60
ENDCHAR
STARTCHAR 060
ENCODING 60
SWIDTH 1512 0
DWIDTH 21 0
BBX 16 17 2 3
BITMAP
0001
0007
003F
00FE
03F8
0FC0
7F00
FC00
F000
FC00
7F00
0FC0
03F8
00FE
003F
0007
0001
ENDCHAR
STARTCHAR 061
ENCODING 61
SWIDTH 1512 0
DWIDTH 21 0
BBX 16 11 2 6
BITMAP
FFFF
FFFF
FFFF
0000
0000
0000
0000
0000
FFFF
FFFF
FFFF
ENDCHAR
STARTCHAR 062
ENCODING 62
SWIDTH 1512 0
DWIDTH 21 0
BBX 16 17 2 3
BITMAP
8000
E000
FC00
7F00
1FC0
03F0
00FE
003F
000F
003F
00FE
03F0
1FC0
7F00
FC00
E000
8000
ENDCHAR
STARTCHAR 063
ENCODING 63
SWIDTH 1440 0
DWIDTH 20 0
BBX 16 26 2 -1
BITMAP
07E0
1FF8
3FFC
781E
700F
E007
E007
0007
0007
000E
001E
003C
0078
00E0
01C0
03C0
0380
0380
0380
0000
0000
0000
0380
0380
0380
0380
ENDCHAR
STARTCHAR 064
ENCODING 64
SWIDTH 2664 0
DWIDTH 37 0
BBX 32 27 2 -2
BITMAP
0007FC00
003FFF80
00F807C0
01E001F0
07800078
0F000038
0E00001C
1C07E70E
380FF70E
381FFF0E
703C3E07
70781E07
70F00E07
E0E00E07
E0E01C07
E1C01C07
E1C01C07
E1C01C0F
E1C03C0E
E1C0380E
E1C0781E
E1E0783C
70F1F8F8
70FFBFF0
787FBFE0
383E1F80
1C000000
ENDCHAR
STARTCHAR 065
ENCODING 65
SWIDTH 2808 0
DWIDTH 39 0
BBX 29 46 5 0
BITMAP
1FFFFFC0
3FFFFFE0
5FFFFFC0
EFFFFF98
F0000038
F0000078
F0000078
F0000078
F0000078
F0000078
F0000078
F0000078
F0000078
F0000078
F0000078
F0000078
F0000078
F0000078
F0000078
F0000078
F0000078
E0000038
DFFFFFD8
BFFFFFE8
BFFFFFE0
DFFFFFD8
E0000038
F0000078
F0000078
F0000078
F0000078
F0000078
F0000078
F0000078
F0000078
F0000078
F0000078
F0000078
F0000078
F0000078
F0000078
F0000078
F0000078
F0000038
E0000018
40000000
ENDCHAR
STARTCHAR 066
ENCODING 66
SWIDTH 2808 0
DWIDTH 39 0
BBX 29 46 5 -2
BITMAP
40000000
E0000000
F0000000
F0000000
F0000000
F0000000
F0000000
F0000000
F0000000
F0000000
F0000000
F0000000
F0000000
F0000000
F0000000
F0000000
F0000000
F0000000
F0000000
E0000000
DFFFFFC0
BFFFFFE0
BFFFFFE0
DFFFFFD8
E0000038
F0000078
F0000078
F0000078
F0000078
F0000078
F0000078
F0000078
F0000078
F0000078
F0000078
F0000078
F0000078
F0000078
F0000078
F0000078
F0000078
F0000038
EFFFFF98
5FFFFFC0
3FFFFFE0
1FFFFFC0
ENDCHAR
STARTCHAR 067
ENCODING 67
SWIDTH 2808 0
DWIDTH 39 0
BBX 27 26 5 -2
BITMAP
1FFFFFC0
3FFFFFE0
BFFFFFE0
DFFFFFC0
E0000000
F0000000
F0000000
F0000000
F0000000
F0000000
F0000000
F0000000
F0000000
F0000000
F0000000
F0000000
F0000000
F0000000
F0000000
F0000000
F0000000
F0000000
EFFFFF80
5FFFFFC0
3FFFFFE0
1FFFFFC0
ENDCHAR
STARTCHAR 068
ENCODING 68
SWIDTH 2808 0
DWIDTH 39 0
BBX 29 45 5 -2
BITMAP
00000018
00000038
00000078
00000078
00000078
00000078
00000078
00000078
00000078
00000078
00000078
00000078
00000078
00000078
00000078
00000078
00000078
00000078
00000038
1FFFFFD8
3FFFFFE8
BFFFFFE0
DFFFFFD8
E0000038
F0000078
F0000078
F0000078
F0000078
F0000078
F0000078
F0000078
F0000078
F0000078
F0000078
F0000078
F0000078
F0000078
F0000078
F0000078
F0000078
F0000038
EFFFFF98
5FFFFFC0
3FFFFFE0
1FFFFFC0
ENDCHAR
STARTCHAR 069
ENCODING 69
SWIDTH 2808 0
DWIDTH 39 0
BBX 27 48 5 -2
BITMAP
1FFFFFC0
3FFFFFE0
5FFFFFC0
EFFFFF80
F0000000
F0000000
F0000000
F0000000
F0000000
F0000000
F0000000
F0000000
F0000000
F0000000
F0000000
F0000000
F0000000
F0000000
F0000000
F0000000
F0000000
E0000000
DFFFFFC0
BFFFFFE0
BFFFFFE0
DFFFFFC0
E0000000
F0000000
F0000000
F0000000
F0000000
F0000000
F0000000
F0000000
F0000000
F0000000
F0000000
F0000000
F0000000
F0000000
F0000000
F0000000
F0000000
F0000000
EFFFFF80
5FFFFFC0
3FFFFFE0
1FFFFFC0
ENDCHAR
STARTCHAR 070
ENCODING 70
SWIDTH 2808 0
DWIDTH 39 0
BBX 27 46 5 0
BITMAP
1FFFFFC0
3FFFFFE0
5FFFFFC0
EFFFFF80
F0000000
F0000000
F0000000
F0000000
F0000000
F0000000
F0000000
F0000000
F0000000
F0000000
F0000000
F0000000
F0000000
F0000000
F0000000
F0000000
F0000000
E0000000
DFFFFFC0
BFFFFFE0
BFFFFFE0
DFFFFFC0
E0000000
F0000000
F0000000
F0000000
F0000000
F0000000
F0000000
F0000000
F0000000
F0000000
F0000000
F0000000
F0000000
F0000000
F0000000
F0000000
F0000000
F0000000
E0000000
40000000
ENDCHAR
STARTCHAR 071
ENCODING 71
SWIDTH 2808 0
DWIDTH 39 0
BBX 29 48 5 -2
BITMAP
1FFFFFC0
3FFFFFE0
5FFFFFC0
EFFFFF80
F0000000
F0000000
F0000000
F0000000
F0000000
F0000000
F0000000
F0000000
F0000000
F0000000
F0000000
F0000000
F0000000
F0000000
F0000000
F0000000
F0000000
E0000000
C0000000
80000000
80000000
C0000018
E0000038
F0000078
F0000078
F0000078
F0000078
F0000078
F0000078
F0000078
F0000078
F0000078
F0000078
F0000078
F0000078
F0000078
F0000078
F0000078
F0000078
F0000038
EFFFFF98
5FFFFFC0
3FFFFFE0
1FFFFFC0
ENDCHAR
STARTCHAR 072
ENCODING 72
SWIDTH 2808 0
DWIDTH 39 0
BBX 29 44 5 0
BITMAP
40000000
E0000000
F0000000
F0000000
F0000000
F0000000
F0000000
F0000000
F0000000
F0000000
F0000000
F0000000
F0000000
F0000000
F0000000
F0000000
F0000000
F0000000
F0000000
E0000000
DFFFFFC0
BFFFFFE0
BFFFFFE0
DFFFFFD8
E0000038
F0000078
F0000078
F0000078
F0000078
F0000078
F0000078
F0000078
F0000078
F0000078
F0000078
F0000078
F0000078
F0000078
F0000078
F0000078
F0000078
F0000038
E0000018
40000000
ENDCHAR
STARTCHAR 073
ENCODING 73
SWIDTH 2808 0
DWIDTH 39 0
BBX 4 20 30 1
BITMAP
30
70
F0
F0
F0
F0
F0
F0
F0
F0
F0
F0
F0
F0
F0
F0
F0
F0
70
30
ENDCHAR
STARTCHAR 074
ENCODING 74
SWIDTH 2808 0
DWIDTH 39 0
BBX 29 45 5 -2
BITMAP
00000018
00000038
00000078
00000078
00000078
00000078
00000078
00000078
00000078
00000078
00000078
00000078
00000078
00000078
00000078
00000078
00000078
00000078
00000038
00000018
00000008
80000000
C0000018
E0000038
F0000078
F0000078
F0000078
F0000078
F0000078
F0000078
F0000078
F0000078
F0000078
F0000078
F0000078
F0000078
F0000078
F0000078
F0000078
F0000078
F0000038
EFFFFF98
5FFFFFC0
3FFFFFE0
1FFFFFC0
ENDCHAR
STARTCHAR 075
ENCODING 75
SWIDTH 2808 0
DWIDTH 39 0
BBX 29 46 5 0
BITMAP
1FFFFFC0
3FFFFFE0
5FFFFFC0
EFFFFF80
F0000000
F0000000
F0000000
F0000000
F0000000
F0000000
F0000000
F0000000
F0000000
F0000000
F0000000
F0000000
F0000000
F0000000
F0000000
F0000000
F0000000
E0000000
DFFFFFC0
BFFFFFE0
BFFFFFE0
DFFFFFD8
E0000038
F0000078
F0000078
F0000078
F0000078
F0000078
F0000078
F0000078
F0000078
F0000078
F0000078
F0000078
F0000078
F0000078
F0000078
F0000078
F0000078
F0000038
E0000018
40000000
ENDCHAR
STARTCHAR 076
ENCODING 76
SWIDTH 2808 0
DWIDTH 39 0
BBX 27 46 5 -2
BITMAP
40000000
E0000000
F0000000
F0000000
F0000000
F0000000
F0000000
F0000000
F0000000
F0000000
F0000000
F0000000
F0000000
F0000000
F0000000
F0000000
F0000000
F0000000
F0000000
E0000000
C0000000
80000000
80000000
C0000000
E0000000
F0000000
F0000000
F0000000
F0000000
F0000000
F0000000
F0000000
F0000000
F0000000
F0000000
F0000000
F0000000
F0000000
F0000000
F0000000
F0000000
F0000000
EFFFFF80
5FFFFFC0
3FFFFFE0
1FFFFFC0
ENDCHAR
STARTCHAR 077
ENCODING 77
SWIDTH 2808 0
DWIDTH 39 0
BBX 29 46 5 0
BITMAP
1FFFFFC0
3FFFFFE0
5FFFFFC0
EFFFFF98
F0000038
F0000078
F0000078
F0000078
F0000078
F0000078
F0000078
F0000078
F0000078
F0000078
F0000078
F0000078
F0000078
F0000078
F0000078
F0000078
F0000078
E0000038
C0000018
80000008
80000000
C0000018
E0000038
F0000078
F0000078
F0000078
F0000078
F0000078
F0000078
F0000078
F0000078
F0000078
F0000078
F0000078
F0000078
F0000078
F0000078
F0000078
F0000078
F0000038
E0000018
40000000
ENDCHAR
STARTCHAR 078
ENCODING 78
SWIDTH 2808 0
DWIDTH 39 0
BBX 29 24 5 0
BITMAP
1FFFFFC0
3FFFFFE0
BFFFFFE0
DFFFFFD8
E0000038
F0000078
F0000078
F0000078
F0000078
F0000078
F0000078
F0000078
F0000078
F0000078
F0000078
F0000078
F0000078
F0000078
F0000078
F0000078
F0000078
F0000038
E0000018
40000000
ENDCHAR
STARTCHAR 079
ENCODING 79
SWIDTH 2808 0
DWIDTH 39 0
BBX 29 26 5 -2
BITMAP
1FFFFFC0
3FFFFFE0
BFFFFFE0
DFFFFFD8
E0000038
F0000078
F0000078
F0000078
F0000078
F0000078
F0000078
F0000078
F0000078
F0000078
F0000078
F0000078
F0000078
F0000078
F0000078
F0000078
F0000078
F0000038
EFFFFF98
5FFFFFC0
3FFFFFE0
1FFFFFC0
ENDCHAR
STARTCHAR 080
ENCODING 80
SWIDTH 2808 0
DWIDTH 39 0
BBX 29 46 5 0
BITMAP
1FFFFFC0
3FFFFFE0
5FFFFFC0
EFFFFF98
F0000038
F0000078
F0000078
F0000078
F0000078
F0000078
F0000078
F0000078
F0000078
F0000078
F0000078
F0000078
F0000078
F0000078
F0000078
F0000078
F0000078
E0000038
DFFFFFD8
BFFFFFE8
BFFFFFE0
DFFFFFC0
E0000000
F0000000
F0000000
F0000000
F0000000
F0000000
F0000000
F0000000
F0000000
F0000000
F0000000
F0000000
F0000000
F0000000
F0000000
F0000000
F0000000
F0000000
E0000000
40000000
ENDCHAR
STARTCHAR 081
ENCODING 81
SWIDTH 2808 0
DWIDTH 39 0
BBX 29 45 5 1
BITMAP
1FFFFFC0
3FFFFFE0
5FFFFFC0
EFFFFF98
F0000038
F0000078
F0000078
F0000078
F0000078
F0000078
F0000078
F0000078
F0000078
F0000078
F0000078
F0000078
F0000078
F0000078
F0000078
F0000078
F0000078
E0000038
DFFFFFD8
BFFFFFE8
3FFFFFE0
1FFFFFD8
00000038
00000078
00000078
00000078
00000078
00000078
00000078
00000078
00000078
00000078
00000078
00000078
00000078
00000078
00000078
00000078
00000078
00000038
00000018
ENDCHAR
STARTCHAR 082
ENCODING 82
SWIDTH 2808 0
DWIDTH 39 0
BBX 27 24 5 0
BITMAP
1FFFFFC0
3FFFFFE0
BFFFFFE0
DFFFFFC0
E0000000
F0000000
F0000000
F0000000
F0000000
F0000000
F0000000
F0000000
F0000000
F0000000
F0000000
F0000000
F0000000
F0000000
F0000000
F0000000
F0000000
F0000000
E0000000
40000000
ENDCHAR
STARTCHAR 083
ENCODING 83
SWIDTH 2808 0
DWIDTH 39 0
BBX 29 48 5 -2
BITMAP
1FFFFFC0
3FFFFFE0
9FFFFFC0
DFFFFF80
E0000000
F0000000
F0000000
F0000000
F0000000
F0000000
F0000000
F0000000
F0000000
F0000000
F0000000
F0000000
F0000000
F0000000
F0000000
F0000000
F0000000
E0000000
DFFFFFC0
BFFFFFE0
3FFFFFE8
1FFFFFD8
00000038
00000078
00000078
00000078
00000078
00000078
00000078
00000078
00000078
00000078
00000078
00000078
00000078
00000078
00000078
00000078
00000078
00000038
0FFFFF98
1FFFFFC8
3FFFFFE0
1FFFFFC0
ENDCHAR
STARTCHAR 084
ENCODING 84
SWIDTH 2808 0
DWIDTH 39 0
BBX 27 46 5 -2
BITMAP
40000000
E0000000
F0000000
F0000000
F0000000
F0000000
F0000000
F0000000
F0000000
F0000000
F0000000
F0000000
F0000000
F0000000
F0000000
F0000000
F0000000
F0000000
F0000000
E0000000
DFFFFFC0
BFFFFFE0
BFFFFFE0
DFFFFFC0
E0000000
F0000000
F0000000
F0000000
F0000000
F0000000
F0000000
F0000000
F0000000
F0000000
F0000000
F0000000
F0000000
F0000000
F0000000
F0000000
F0000000
F0000000
EFFFFF80
5FFFFFC0
3FFFFFE0
1FFFFFC0
ENDCHAR
STARTCHAR 085
ENCODING 85
SWIDTH 2808 0
DWIDTH 39 0
BBX 29 24 5 -2
BITMAP
80000000
C0000018
E0000038
F0000078
F0000078
F0000078
F0000078
F0000078
F0000078
F0000078
F0000078
F0000078
F0000078
F0000078
F0000078
F0000078
F0000078
F0000078
F0000078
F0000038
EFFFFF98
5FFFFFC0
3FFFFFE0
1FFFFFC0
ENDCHAR
STARTCHAR 086
ENCODING 86
SWIDTH 2808 0
DWIDTH 39 0
BBX 29 46 5 -2
BITMAP
40000000
E0000018
F0000038
F0000078
F0000078
F0000078
F0000078
F0000078
F0000078
F0000078
F0000078
F0000078
F0000078
F0000078
F0000078
F0000078
F0000078
F0000078
F0000078
E0000038
C0000018
80000008
80000000
C0000018
E0000038
F0000078
F0000078
F0000078
F0000078
F0000078
F0000078
F0000078
F0000078
F0000078
F0000078
F0000078
F0000078
F0000078
F0000078
F0000078
F0000078
F0000038
EFFFFF98
5FFFFFC0
3FFFFFE0
1FFFFFC0
ENDCHAR
STARTCHAR 087
ENCODING 87
SWIDTH 2808 0
DWIDTH 39 0
BBX 29 46 5 -2
BITMAP
40000000
E0000018
F0000038
F0000078
F0000078
F0000078
F0000078
F0000078
F0000078
F0000078
F0000078
F0000078
F0000078
F0000078
F0000078
F0000078
F0000078
F0000078
F0000078
E0000038
DFFFFFD8
BFFFFFE8
BFFFFFE0
DFFFFFD8
E0000038
F0000078
F0000078
F0000078
F0000078
F0000078
F0000078
F0000078
F0000078
F0000078
F0000078
F0000078
F0000078
F0000078
F0000078
F0000078
F0000078
F0000038
EFFFFF98
5FFFFFC0
3FFFFFE0
1FFFFFC0
ENDCHAR
STARTCHAR 088
ENCODING 88
SWIDTH 2808 0
DWIDTH 39 0
BBX 29 44 5 0
BITMAP
40000000
E0000018
F0000038
F0000078
F0000078
F0000078
F0000078
F0000078
F0000078
F0000078
F0000078
F0000078
F0000078
F0000078
F0000078
F0000078
F0000078
F0000078
F0000078
E0000038
DFFFFFD8
BFFFFFE8
BFFFFFE0
DFFFFFD8
E0000038
F0000078
F0000078
F0000078
F0000078
F0000078
F0000078
F0000078
F0000078
F0000078
F0000078
F0000078
F0000078
F0000078
F0000078
F0000078
F0000078
F0000038
E0000018
40000000
ENDCHAR
STARTCHAR 089
ENCODING 89
SWIDTH 2808 0
DWIDTH 39 0
BBX 29 46 5 -2
BITMAP
40000000
E0000018
F0000038
F0000078
F0000078
F0000078
F0000078
F0000078
F0000078
F0000078
F0000078
F0000078
F0000078
F0000078
F0000078
F0000078
F0000078
F0000078
F0000078
E0000038
DFFFFFD8
BFFFFFE8
3FFFFFE0
1FFFFFD8
00000038
00000078
00000078
00000078
00000078
00000078
00000078
00000078
00000078
00000078
00000078
00000078
00000078
00000078
00000078
00000078
00000078
00000038
0FFFFF98
1FFFFFC0
3FFFFFE0
1FFFFFC0
ENDCHAR
STARTCHAR 090
ENCODING 90
SWIDTH 2808 0
DWIDTH 39 0
BBX 29 48 5 -2
BITMAP
1FFFFFC0
3FFFFFE0
1FFFFFC0
0FFFFF98
00000038
00000078
00000078
00000078
00000078
00000078
00000078
00000078
00000078
00000078
00000078
00000078
00000078
00000078
00000078
00000078
00000078
00000038
00000018
00000008
80000000
C0000000
E0000000
F0000000
F0000000
F0000000
F0000000
F0000000
F0000000
F0000000
F0000000
F0000000
F0000000
F0000000
F0000000
F0000000
F0000000
F0000000
F0000000
F0000000
EFFFFF80
5FFFFFC0
3FFFFFE0
1FFFFFC0
ENDCHAR
STARTCHAR 091
ENCODING 91
SWIDTH 720 0
DWIDTH 10 0
BBX 7 27 2 -2
BITMAP
FE
FE
FE
E0
E0
E0
E0
E0
E0
E0
E0
E0
E0
E0
E0
E0
E0
E0
E0
E0
E0
E0
E0
E0
E0
E0
E0
ENDCHAR
STARTCHAR 092
ENCODING 92
SWIDTH 720 0
DWIDTH 10 0
BBX 10 26 0 -1
BITMAP
C000
E000
6000
6000
6000
3000
3000
3000
1800
1800
1800
0C00
0C00
0C00
0C00
0600
0600
0600
0300
0300
0300
0180
0180
0180
01C0
00C0
ENDCHAR
STARTCHAR 093
ENCODING 93
SWIDTH 720 0
DWIDTH 10 0
BBX 7 27 0 -2
BITMAP
FE
FE
FE
0E
0E
0E
0E
0E
0E
0E
0E
0E
0E
0E
0E
0E
0E
0E
0E
0E
0E
0E
0E
0E
0E
0E
0E
ENDCHAR
STARTCHAR 094
ENCODING 94
SWIDTH 1224 0
DWIDTH 17 0
BBX 15 11 1 14
BITMAP
0380
07C0
07C0
0EE0
0EE0
1C70
1C70
3838
701C
701C
E00E
ENDCHAR
STARTCHAR 095
ENCODING 95
SWIDTH 2808 0
DWIDTH 39 0
BBX 25 4 7 -2
BITMAP
3FFFFE00
7FFFFF00
FFFFFF80
7FFFFF00
ENDCHAR
STARTCHAR 096
ENCODING 96
SWIDTH 864 0
DWIDTH 12 0
BBX 6 5 2 20
BITMAP
F0
70
38
18
1C
ENDCHAR
STARTCHAR 097
ENCODING 97
SWIDTH 2808 0
DWIDTH 39 0
BBX 29 46 5 0
BITMAP
1FFFFFC0
3FFFFFE0
5FFFFFC0
EFFFFF98
F0000038
F0000078
F0000078
F0000078
F0000078
F0000078
F0000078
F0000078
F0000078
F0000078
F0000078
F0000078
F0000078
F0000078
F0000078
F0000078
F0000078
E0000038
DFFFFFD8
BFFFFFE8
BFFFFFE0
DFFFFFD8
E0000038
F0000078
F0000078
F0000078
F0000078
F0000078
F0000078
F0000078
F0000078
F0000078
F0000078
F0000078
F0000078
F0000078
F0000078
F0000078
F0000078
F0000038
E0000018
40000000
ENDCHAR
STARTCHAR 098
ENCODING 98
SWIDTH 2808 0
DWIDTH 39 0
BBX 29 46 5 -2
BITMAP
40000000
E0000000
F0000000
F0000000
F0000000
F0000000
F0000000
F0000000
F0000000
F0000000
F0000000
F0000000
F0000000
F0000000
F0000000
F0000000
F0000000
F0000000
F0000000
E0000000
DFFFFFC0
BFFFFFE0
BFFFFFE0
DFFFFFD8
E0000038
F0000078
F0000078
F0000078
F0000078
F0000078
F0000078
F0000078
F0000078
F0000078
F0000078
F0000078
F0000078
F0000078
F0000078
F0000078
F0000078
F0000038
EFFFFF98
5FFFFFC0
3FFFFFE0
1FFFFFC0
ENDCHAR
STARTCHAR 099
ENCODING 99
SWIDTH 2808 0
DWIDTH 39 0
BBX 27 26 5 -2
BITMAP
1FFFFFC0
3FFFFFE0
BFFFFFE0
DFFFFFC0
E0000000
F0000000
F0000000
F0000000
F0000000
F0000000
F0000000
F0000000
F0000000
F0000000
F0000000
F0000000
F0000000
F0000000
F0000000
F0000000
F0000000
F0000000
EFFFFF80
5FFFFFC0
3FFFFFE0
1FFFFFC0
ENDCHAR
STARTCHAR 100
ENCODING 100
SWIDTH 2808 0
DWIDTH 39 0
BBX 29 45 5 -2
BITMAP
00000018
00000038
00000078
00000078
00000078
00000078
00000078
00000078
00000078
00000078
00000078
00000078
00000078
00000078
00000078
00000078
00000078
00000078
00000038
1FFFFFD8
3FFFFFE8
BFFFFFE0
DFFFFFD8
E0000038
F0000078
F0000078
F0000078
F0000078
F0000078
F0000078
F0000078
F0000078
F0000078
F0000078
F0000078
F0000078
F0000078
F0000078
F0000078
F0000078
F0000038
EFFFFF98
5FFFFFC0
3FFFFFE0
1FFFFFC0
ENDCHAR
STARTCHAR 101
ENCODING 101
SWIDTH 2808 0
DWIDTH 39 0
BBX 27 48 5 -2
BITMAP
1FFFFFC0
3FFFFFE0
5FFFFFC0
EFFFFF80
F0000000
F0000000
F0000000
F0000000
F0000000
F0000000
F0000000
F0000000
F0000000
F0000000
F0000000
F0000000
F0000000
F0000000
F0000000
F0000000
F0000000
E0000000
DFFFFFC0
BFFFFFE0
BFFFFFE0
DFFFFFC0
E0000000
F0000000
F0000000
F0000000
F0000000
F0000000
F0000000
F0000000
F0000000
F0000000
F0000000
F0000000
F0000000
F0000000
F0000000
F0000000
F0000000
F0000000
EFFFFF80
5FFFFFC0
3FFFFFE0
1FFFFFC0
ENDCHAR
STARTCHAR 102
ENCODING 102
SWIDTH 2808 0
DWIDTH 39 0
BBX 27 46 5 0
BITMAP
1FFFFFC0
3FFFFFE0
5FFFFFC0
EFFFFF80
F0000000
F0000000
F0000000
F0000000
F0000000
F0000000
F0000000
F0000000
F0000000
F0000000
F0000000
F0000000
F0000000
F0000000
F0000000
F0000000
F0000000
E0000000
DFFFFFC0
BFFFFFE0
BFFFFFE0
DFFFFFC0
E0000000
F0000000
F0000000
F0000000
F0000000
F0000000
F0000000
F0000000
F0000000
F0000000
F0000000
F0000000
F0000000
F0000000
F0000000
F0000000
F0000000
F0000000
E0000000
40000000
ENDCHAR
STARTCHAR 103
ENCODING 103
SWIDTH 2808 0
DWIDTH 39 0
BBX 29 48 5 -2
BITMAP
1FFFFFC0
3FFFFFE0
5FFFFFC0
EFFFFF80
F0000000
F0000000
F0000000
F0000000
F0000000
F0000000
F0000000
F0000000
F0000000
F0000000
F0000000
F0000000
F0000000
F0000000
F0000000
F0000000
F0000000
E0000000
C0000000
80000000
80000000
C0000018
E0000038
F0000078
F0000078
F0000078
F0000078
F0000078
F0000078
F0000078
F0000078
F0000078
F0000078
F0000078
F0000078
F0000078
F0000078
F0000078
F0000078
F0000038
EFFFFF98
5FFFFFC0
3FFFFFE0
1FFFFFC0
ENDCHAR
STARTCHAR 104
ENCODING 104
SWIDTH 2808 0
DWIDTH 39 0
BBX 29 44 5 0
BITMAP
40000000
E0000000
F0000000
F0000000
F0000000
F0000000
F0000000
F0000000
F0000000
F0000000
F0000000
F0000000
F0000000
F0000000
F0000000
F0000000
F0000000
F0000000
F0000000
E0000000
DFFFFFC0
BFFFFFE0
BFFFFFE0
DFFFFFD8
E0000038
F0000078
F0000078
F0000078
F0000078
F0000078
F0000078
F0000078
F0000078
F0000078
F0000078
F0000078
F0000078
F0000078
F0000078
F0000078
F0000078
F0000038
E0000018
40000000
ENDCHAR
STARTCHAR 105
ENCODING 105
SWIDTH 2808 0
DWIDTH 39 0
BBX 4 20 30 1
BITMAP
30
70
F0
F0
F0
F0
F0
F0
F0
F0
F0
F0
F0
F0
F0
F0
F0
F0
70
30
ENDCHAR
STARTCHAR 106
ENCODING 106
SWIDTH 2808 0
DWIDTH 39 0
BBX 29 45 5 -2
BITMAP
00000018
00000038
00000078
00000078
00000078
00000078
00000078
00000078
00000078
00000078
00000078
00000078
00000078
00000078
00000078
00000078
00000078
00000078
00000038
00000018
00000008
80000000
C0000018
E0000038
F0000078
F0000078
F0000078
F0000078
F0000078
F0000078
F0000078
F0000078
F0000078
F0000078
F0000078
F0000078
F0000078
F0000078
F0000078
F0000078
F0000038
EFFFFF98
5FFFFFC0
3FFFFFE0
1FFFFFC0
ENDCHAR
STARTCHAR 107
ENCODING 107
SWIDTH 2808 0
DWIDTH 39 0
BBX 29 46 5 0
BITMAP
1FFFFFC0
3FFFFFE0
5FFFFFC0
EFFFFF80
F0000000
F0000000
F0000000
F0000000
F0000000
F0000000
F0000000
F0000000
F0000000
F0000000
F0000000
F0000000
F0000000
F0000000
F0000000
F0000000
F0000000
E0000000
DFFFFFC0
BFFFFFE0
BFFFFFE0
DFFFFFD8
E0000038
F0000078
F0000078
F0000078
F0000078
F0000078
F0000078
F0000078
F0000078
F0000078
F0000078
F0000078
F0000078
F0000078
F0000078
F0000078
F0000078
F0000038
E0000018
40000000
ENDCHAR
STARTCHAR 108
ENCODING 108
SWIDTH 2808 0
DWIDTH 39 0
BBX 27 46 5 -2
BITMAP
40000000
E0000000
F0000000
F0000000
F0000000
F0000000
F0000000
F0000000
F0000000
F0000000
F0000000
F0000000
F0000000
F0000000
F0000000
F0000000
F0000000
F0000000
F0000000
E0000000
C0000000
80000000
80000000
C0000000
E0000000
F0000000
F0000000
F0000000
F0000000
F0000000
F0000000
F0000000
F0000000
F0000000
F0000000
F0000000
F0000000
F0000000
F0000000
F0000000
F0000000
F0000000
EFFFFF80
5FFFFFC0
3FFFFFE0
1FFFFFC0
ENDCHAR
STARTCHAR 109
ENCODING 109
SWIDTH 2808 0
DWIDTH 39 0
BBX 29 46 5 0
BITMAP
1FFFFFC0
3FFFFFE0
5FFFFFC0
EFFFFF98
F0000038
F0000078
F0000078
F0000078
F0000078
F0000078
F0000078
F0000078
F0000078
F0000078
F0000078
F0000078
F0000078
F0000078
F0000078
F0000078
F0000078
E0000038
C0000018
80000008
80000000
C0000018
E0000038
F0000078
F0000078
F0000078
F0000078
F0000078
F0000078
F0000078
F0000078
F0000078
F0000078
F0000078
F0000078
F0000078
F0000078
F0000078
F0000078
F0000038
E0000018
40000000
ENDCHAR
STARTCHAR 110
ENCODING 110
SWIDTH 2808 0
DWIDTH 39 0
BBX 29 24 5 0
BITMAP
1FFFFFC0
3FFFFFE0
BFFFFFE0
DFFFFFD8
E0000038
F0000078
F0000078
F0000078
F0000078
F0000078
F0000078
F0000078
F0000078
F0000078
F0000078
F0000078
F0000078
F0000078
F0000078
F0000078
F0000078
F0000038
E0000018
40000000
ENDCHAR
STARTCHAR 111
ENCODING 111
SWIDTH 2808 0
DWIDTH 39 0
BBX 29 26 5 -2
BITMAP
1FFFFFC0
3FFFFFE0
BFFFFFE0
DFFFFFD8
E0000038
F0000078
F0000078
F0000078
F0000078
F0000078
F0000078
F0000078
F0000078
F0000078
F0000078
F0000078
F0000078
F0000078
F0000078
F0000078
F0000078
F0000038
EFFFFF98
5FFFFFC0
3FFFFFE0
1FFFFFC0
ENDCHAR
STARTCHAR 112
ENCODING 112
SWIDTH 2808 0
DWIDTH 39 0
BBX 29 46 5 0
BITMAP
1FFFFFC0
3FFFFFE0
5FFFFFC0
EFFFFF98
F0000038
F0000078
F0000078
F0000078
F0000078
F0000078
F0000078
F0000078
F0000078
F0000078
F0000078
F0000078
F0000078
F0000078
F0000078
F0000078
F0000078
E0000038
DFFFFFD8
BFFFFFE8
BFFFFFE0
DFFFFFC0
E0000000
F0000000
F0000000
F0000000
F0000000
F0000000
F0000000
F0000000
F0000000
F0000000
F0000000
F0000000
F0000000
F0000000
F0000000
F0000000
F0000000
F0000000
E0000000
40000000
ENDCHAR
STARTCHAR 113
ENCODING 113
SWIDTH 2808 0
DWIDTH 39 0
BBX 29 45 5 1
BITMAP
1FFFFFC0
3FFFFFE0
5FFFFFC0
EFFFFF98
F0000038
F0000078
F0000078
F0000078
F0000078
F0000078
F0000078
F0000078
F0000078
F0000078
F0000078
F0000078
F0000078
F0000078
F0000078
F0000078
F0000078
E0000038
DFFFFFD8
BFFFFFE8
3FFFFFE0
1FFFFFD8
00000038
00000078
00000078
00000078
00000078
00000078
00000078
00000078
00000078
00000078
00000078
00000078
00000078
00000078
00000078
00000078
00000078
00000038
00000018
ENDCHAR
STARTCHAR 114
ENCODING 114
SWIDTH 2808 0
DWIDTH 39 0
BBX 27 24 5 0
BITMAP
1FFFFFC0
3FFFFFE0
BFFFFFE0
DFFFFFC0
E0000000
F0000000
F0000000
F0000000
F0000000
F0000000
F0000000
F0000000
F0000000
F0000000
F0000000
F0000000
F0000000
F0000000
F0000000
F0000000
F0000000
F0000000
E0000000
40000000
ENDCHAR
STARTCHAR 115
ENCODING 115
SWIDTH 2808 0
DWIDTH 39 0
BBX 29 46 5 -2
BITMAP
40000000
E0000000
F0000000
F0000000
F0000000
F0000000
F0000000
F0000000
F0000000
F0000000
F0000000
F0000000
F0000000
F0000000
F0000000
F0000000
F0000000
F0000000
F0000000
E0000000
DFFFFFC0
BFFFFFE0
3FFFFFE0
1FFFFFD8
00000038
00000078
00000078
00000078
00000078
00000078
00000078
00000078
00000078
00000078
00000078
00000078
00000078
00000078
00000078
00000078
00000078
00000038
0FFFFF98
1FFFFFC0
3FFFFFE0
1FFFFFC0
ENDCHAR
STARTCHAR 116
ENCODING 116
SWIDTH 2808 0
DWIDTH 39 0
BBX 27 46 5 -2
BITMAP
40000000
E0000000
F0000000
F0000000
F0000000
F0000000
F0000000
F0000000
F0000000
F0000000
F0000000
F0000000
F0000000
F0000000
F0000000
F0000000
F0000000
F0000000
F0000000
E0000000
DFFFFFC0
BFFFFFE0
BFFFFFE0
DFFFFFC0
E0000000
F0000000
F0000000
F0000000
F0000000
F0000000
F0000000
F0000000
F0000000
F0000000
F0000000
F0000000
F0000000
F0000000
F0000000
F0000000
F0000000
F0000000
EFFFFF80
5FFFFFC0
3FFFFFE0
1FFFFFC0
ENDCHAR
STARTCHAR 117
ENCODING 117
SWIDTH 2808 0
DWIDTH 39 0
BBX 29 24 5 -2
BITMAP
80000000
C0000018
E0000038
F0000078
F0000078
F0000078
F0000078
F0000078
F0000078
F0000078
F0000078
F0000078
F0000078
F0000078
F0000078
F0000078
F0000078
F0000078
F0000078
F0000038
EFFFFF98
5FFFFFC0
3FFFFFE0
1FFFFFC0
ENDCHAR
STARTCHAR 118
ENCODING 118
SWIDTH 2808 0
DWIDTH 39 0
BBX 29 46 5 -2
BITMAP
40000000
E0000018
F0000038
F0000078
F0000078
F0000078
F0000078
F0000078
F0000078
F0000078
F0000078
F0000078
F0000078
F0000078
F0000078
F0000078
F0000078
F0000078
F0000078
E0000038
C0000018
80000008
80000000
C0000018
E0000038
F0000078
F0000078
F0000078
F0000078
F0000078
F0000078
F0000078
F0000078
F0000078
F0000078
F0000078
F0000078
F0000078
F0000078
F0000078
F0000078
F0000038
EFFFFF98
5FFFFFC0
3FFFFFE0
1FFFFFC0
ENDCHAR
STARTCHAR 119
ENCODING 119
SWIDTH 2808 0
DWIDTH 39 0
BBX 29 46 5 -2
BITMAP
40000000
E0000018
F0000038
F0000078
F0000078
F0000078
F0000078
F0000078
F0000078
F0000078
F0000078
F0000078
F0000078
F0000078
F0000078
F0000078
F0000078
F0000078
F0000078
E0000038
DFFFFFD8
BFFFFFE8
BFFFFFE0
DFFFFFD8
E0000038
F0000078
F0000078
F0000078
F0000078
F0000078
F0000078
F0000078
F0000078
F0000078
F0000078
F0000078
F0000078
F0000078
F0000078
F0000078
F0000078
F0000038
EFFFFF98
5FFFFFC0
3FFFFFE0
1FFFFFC0
ENDCHAR
STARTCHAR 120
ENCODING 120
SWIDTH 2808 0
DWIDTH 39 0
BBX 29 44 5 0
BITMAP
40000000
E0000018
F0000038
F0000078
F0000078
F0000078
F0000078
F0000078
F0000078
F0000078
F0000078
F0000078
F0000078
F0000078
F0000078
F0000078
F0000078
F0000078
F0000078
E0000038
DFFFFFD8
BFFFFFE8
BFFFFFE0
DFFFFFD8
E0000038
F0000078
F0000078
F0000078
F0000078
F0000078
F0000078
F0000078
F0000078
F0000078
F0000078
F0000078
F0000078
F0000078
F0000078
F0000078
F0000078
F0000038
E0000018
40000000
ENDCHAR
STARTCHAR 121
ENCODING 121
SWIDTH 2808 0
DWIDTH 39 0
BBX 29 46 5 -2
BITMAP
40000000
E0000018
F0000038
F0000078
F0000078
F0000078
F0000078
F0000078
F0000078
F0000078
F0000078
F0000078
F0000078
F0000078
F0000078
F0000078
F0000078
F0000078
F0000078
E0000038
DFFFFFD8
BFFFFFE8
3FFFFFE0
1FFFFFD8
00000038
00000078
00000078
00000078
00000078
00000078
00000078
00000078
00000078
00000078
00000078
00000078
00000078
00000078
00000078
00000078
00000078
00000038
0FFFFF98
1FFFFFC0
3FFFFFE0
1FFFFFC0
ENDCHAR
STARTCHAR 122
ENCODING 122
SWIDTH 2808 0
DWIDTH 39 0
BBX 29 48 5 -2
BITMAP
1FFFFFC0
3FFFFFE0
1FFFFFC0
0FFFFF98
00000038
00000078
00000078
00000078
00000078
00000078
00000078
00000078
00000078
00000078
00000078
00000078
00000078
00000078
00000078
00000078
00000078
00000038
00000018
00000008
80000000
C0000000
E0000000
F0000000
F0000000
F0000000
F0000000
F0000000
F0000000
F0000000
F0000000
F0000000
F0000000
F0000000
F0000000
F0000000
F0000000
F0000000
F0000000
F0000000
EFFFFF80
5FFFFFC0
3FFFFFE0
1FFFFFC0
ENDCHAR
STARTCHAR 123
ENCODING 123
SWIDTH 864 0
DWIDTH 12 0
BBX 11 27 1 -2
BITMAP
01E0
07E0
07E0
0F00
0E00
0E00
0E00
0E00
0E00
0E00
0E00
0E00
0E00
1C00
3C00
F800
E000
F800
3C00
1C00
0E00
0E00
0E00
0E00
0E00
0E00
0E00
ENDCHAR
STARTCHAR 124
ENCODING 124
SWIDTH 648 0
DWIDTH 9 0
BBX 3 27 3 -2
BITMAP
E0
E0
E0
E0
E0
E0
E0
E0
E0
E0
E0
E0
E0
E0
E0
E0
E0
E0
E0
E0
E0
E0
E0
E0
E0
E0
E0
ENDCHAR
STARTCHAR 125
ENCODING 125
SWIDTH 864 0
DWIDTH 12 0
BBX 11 27 0 -2
BITMAP
F000
FC00
FC00
1E00
0E00
0E00
0E00
0E00
0E00
0E00
0E00
0E00
0E00
0700
0780
03E0
00E0
03E0
0780
0700
0E00
0E00
0E00
0E00
0E00
0E00
0E00
ENDCHAR
STARTCHAR 126
ENCODING 126
SWIDTH 1512 0
DWIDTH 21 0
BBX 18 5 1 20
BITMAP
3F0040
FFE0C0
FFFFC0
C1FFC0
803F00
ENDCHAR
STARTCHAR 127
ENCODING 127
SWIDTH 792 0
DWIDTH 11 0
BBX 9 27 1 -1
BITMAP
FF80
FF80
C180
C180
C180
C180
C180
C180
C180
C180
C180
C180
C180
C180
C180
C180
C180
C180
C180
C180
C180
C180
C180
C180
C180
FF80
FF80
ENDCHAR
STARTCHAR 128
ENCODING 128
SWIDTH 0 0
DWIDTH 0 0
BBX 0 0 0 0
BITMAP
ENDCHAR
STARTCHAR 129
ENCODING 129
SWIDTH 0 0
DWIDTH 0 0
BBX 0 0 0 0
BITMAP
ENDCHAR
STARTCHAR 130
ENCODING 130
SWIDTH 0 0
DWIDTH 0 0
BBX 0 0 0 0
BITMAP
ENDCHAR
STARTCHAR 131
ENCODING 131
SWIDTH 0 0
DWIDTH 0 0
BBX 0 0 0 0
BITMAP
ENDCHAR
STARTCHAR 132
ENCODING 132
SWIDTH 0 0
DWIDTH 0 0
BBX 0 0 0 0
BITMAP
ENDCHAR
STARTCHAR 133
ENCODING 133
SWIDTH 0 0
DWIDTH 0 0
BBX 0 0 0 0
BITMAP
ENDCHAR
STARTCHAR 134
ENCODING 134
SWIDTH 0 0
DWIDTH 0 0
BBX 0 0 0 0
BITMAP
ENDCHAR
STARTCHAR 135
ENCODING 135
SWIDTH 0 0
DWIDTH 0 0
BBX 0 0 0 0
BITMAP
ENDCHAR
STARTCHAR 136
ENCODING 136
SWIDTH 0 0
DWIDTH 0 0
BBX 0 0 0 0
BITMAP
ENDCHAR
STARTCHAR 137
ENCODING 137
SWIDTH 0 0
DWIDTH 0 0
BBX 0 0 0 0
BITMAP
ENDCHAR
STARTCHAR 138
ENCODING 138
SWIDTH 0 0
DWIDTH 0 0
BBX 0 0 0 0
BITMAP
ENDCHAR
STARTCHAR 139
ENCODING 139
SWIDTH 0 0
DWIDTH 0 0
BBX 0 0 0 0
BITMAP
ENDCHAR
STARTCHAR 140
ENCODING 140
SWIDTH 0 0
DWIDTH 0 0
BBX 0 0 0 0
BITMAP
ENDCHAR
STARTCHAR 141
ENCODING 141
SWIDTH 0 0
DWIDTH 0 0
BBX 0 0 0 0
BITMAP
ENDCHAR
STARTCHAR 142
ENCODING 142
SWIDTH 0 0
DWIDTH 0 0
BBX 0 0 0 0
BITMAP
ENDCHAR
STARTCHAR 143
ENCODING 143
SWIDTH 0 0
DWIDTH 0 0
BBX 0 0 0 0
BITMAP
ENDCHAR
STARTCHAR 144
ENCODING 144
SWIDTH 0 0
DWIDTH 0 0
BBX 0 0 0 0
BITMAP
ENDCHAR
STARTCHAR 145
ENCODING 145
SWIDTH 0 0
DWIDTH 0 0
BBX 0 0 0 0
BITMAP
ENDCHAR
STARTCHAR 146
ENCODING 146
SWIDTH 0 0
DWIDTH 0 0
BBX 0 0 0 0
BITMAP
ENDCHAR
STARTCHAR 147
ENCODING 147
SWIDTH 0 0
DWIDTH 0 0
BBX 0 0 0 0
BITMAP
ENDCHAR
STARTCHAR 148
ENCODING 148
SWIDTH 0 0
DWIDTH 0 0
BBX 0 0 0 0
BITMAP
ENDCHAR
STARTCHAR 149
ENCODING 149
SWIDTH 0 0
DWIDTH 0 0
BBX 0 0 0 0
BITMAP
ENDCHAR
STARTCHAR 150
ENCODING 150
SWIDTH 0 0
DWIDTH 0 0
BBX 0 0 0 0
BITMAP
ENDCHAR
STARTCHAR 151
ENCODING 151
SWIDTH 0 0
DWIDTH 0 0
BBX 0 0 0 0
BITMAP
ENDCHAR
STARTCHAR 152
ENCODING 152
SWIDTH 0 0
DWIDTH 0 0
BBX 0 0 0 0
BITMAP
ENDCHAR
STARTCHAR 153
ENCODING 153
SWIDTH 0 0
DWIDTH 0 0
BBX 0 0 0 0
BITMAP
ENDCHAR
STARTCHAR 154
ENCODING 154
SWIDTH 0 0
DWIDTH 0 0
BBX 0 0 0 0
BITMAP
ENDCHAR
STARTCHAR 155
ENCODING 155
SWIDTH 0 0
DWIDTH 0 0
BBX 0 0 0 0
BITMAP
ENDCHAR
STARTCHAR 156
ENCODING 156
SWIDTH 0 0
DWIDTH 0 0
BBX 0 0 0 0
BITMAP
ENDCHAR
STARTCHAR 157
ENCODING 157
SWIDTH 0 0
DWIDTH 0 0
BBX 0 0 0 0
BITMAP
ENDCHAR
STARTCHAR 158
ENCODING 158
SWIDTH 0 0
DWIDTH 0 0
BBX 0 0 0 0
BITMAP
ENDCHAR
STARTCHAR 159
ENCODING 159
SWIDTH 0 0
DWIDTH 0 0
BBX 0 0 0 0
BITMAP
ENDCHAR
STARTCHAR 160
ENCODING 160
SWIDTH 720 0
DWIDTH 10 0
BBX 0 0 0 0
BITMAP
ENDCHAR
STARTCHAR 161
ENCODING 161
SWIDTH 720 0
DWIDTH 10 0
BBX 3 20 3 -2
BITMAP
E0
E0
E0
E0
00
00
00
40
40
E0
E0
E0
E0
E0
E0
E0
E0
E0
E0
E0
ENDCHAR
STARTCHAR 162
ENCODING 162
SWIDTH 1440 0
DWIDTH 20 0
BBX 15 24 2 -2
BITMAP
0030
0030
0030
0060
07E0
1FF8
3FFC
7CFC
78CE
70CE
E0C0
E180
E180
E180
E180
E180
E300
730E
7B0E
3F3C
3FFC
0FF8
07E0
0600
ENDCHAR
STARTCHAR 163
ENCODING 163
SWIDTH 1440 0
DWIDTH 20 0
BBX 17 26 1 -1
BITMAP
01F800
07FC00
0FFE00
1E0F00
3C0780
380380
380380
380000
380000
380000
1C0000
1C0000
FFE000
FFE000
FFE000
0E0000
0E0000
0E0000
0E0000
0C0000
1C0000
380000
7FC080
FFFF80
FFFF80
C03F00
ENDCHAR
STARTCHAR 164
ENCODING 164
SWIDTH 1440 0
DWIDTH 20 0
BBX 17 17 2 3
BITMAP
400100
F3E380
FFFF80
7FFF00
3C1E00
380E00
700700
700700
700700
700700
700700
380E00
3C1E00
7FFF00
FFFF80
E3E780
400100
ENDCHAR
STARTCHAR 165
ENCODING 165
SWIDTH 1440 0
DWIDTH 20 0
BBX 19 26 0 -1
BITMAP
F001E0
7001C0
7803C0
380380
3C0780
1C0700
1C0F00
0E0E00
061C00
071C00
033800
03B800
7FFFC0
7FFFC0
7FFFC0
00E000
00E000
00E000
7FFFC0
7FFFC0
7FFFC0
00E000
00E000
00E000
00E000
00E000
ENDCHAR
STARTCHAR 166
ENCODING 166
SWIDTH 648 0
DWIDTH 9 0
BBX 3 27 3 -2
BITMAP
E0
E0
E0
E0
E0
E0
E0
E0
E0
E0
E0
E0
E0
00
00
00
00
00
00
00
E0
E0
E0
E0
E0
E0
E0
ENDCHAR
STARTCHAR 167
ENCODING 167
SWIDTH 1440 0
DWIDTH 20 0
BBX 17 27 1 -2
BITMAP
07E000
0FF800
1FFC00
3C1C00
380E00
380E00
380000
1C0000
1F0000
0F8000
1FE000
73F000
60FC00
E03E00
E01F00
E00780
F00780
780380
7E0380
1F0380
0FC700
03FE00
01F800
007C00
001E00
000F00
000700
ENDCHAR
STARTCHAR 168
ENCODING 168
SWIDTH 864 0
DWIDTH 12 0
BBX 10 4 1 21
BITMAP
E1C0
E1C0
E1C0
E1C0
ENDCHAR
STARTCHAR 169
ENCODING 169
SWIDTH 1944 0
DWIDTH 27 0
BBX 27 26 0 -1
BITMAP
003F8000
01FFF000
03C07800
0F001E00
1C000700
38000380
303F8180
70FFC1C0
61E060C0
E18030E0
C3800060
C3000060
C3000060
C3000060
C3000060
C3803060
E18060E0
61E0E0C0
707FC1C0
303F0180
38000380
1C000700
0F001E00
03C07800
01FFF000
003F8000
ENDCHAR
STARTCHAR 170
ENCODING 170
SWIDTH 936 0
DWIDTH 13 0
BBX 11 17 1 8
BITMAP
1F80
7FC0
F1E0
E0E0
00E0
1FE0
7FE0
F0E0
E0E0
E0E0
E1E0
7FE0
3EE0
0000
0000
7FE0
7FE0
ENDCHAR
STARTCHAR 171
ENCODING 171
SWIDTH 1440 0
DWIDTH 20 0
BBX 15 16 2 0
BITMAP
070E
0E1C
0C18
1C38
3870
3870
70E0
E1C0
E1C0
70E0
3870
3870
1C38
0C18
0E1C
070E
ENDCHAR
STARTCHAR 172
ENCODING 172
SWIDTH 1512 0
DWIDTH 21 0
BBX 16 11 2 6
BITMAP
FFFF
FFFF
FFFF
0007
0007
0007
0007
0007
0007
0007
0007
ENDCHAR
STARTCHAR 173
ENCODING 173
SWIDTH 864 0
DWIDTH 12 0
BBX 10 3 1 7
BITMAP
FFC0
FFC0
FFC0
ENDCHAR
STARTCHAR 174
ENCODING 174
SWIDTH 1944 0
DWIDTH 27 0
BBX 27 26 0 -1
BITMAP
003F8000
01FFF000
03C07800
0F001E00
1C000700
38000380
30FF8180
70FFC1C0
60C0E0C0
E0C060E0
C0C06060
C0C0E060
C0FFC060
C0FF8060
C0C18060
C0C0C060
E0C0E0E0
60C060C0
70C061C0
30C03180
38000380
1C000700
0F001E00
03C07800
01FFF000
003F8000
ENDCHAR
STARTCHAR 175
ENCODING 175
SWIDTH 1296 0
DWIDTH 18 0
BBX 18 2 0 27
BITMAP
FFFFC0
FFFFC0
ENDCHAR
STARTCHAR 176
ENCODING 176
SWIDTH 2808 0
DWIDTH 39 0
BBX 29 26 5 20
BITMAP
1FFFFFC0
3FFFFFE0
5FFFFFC0
EFFFFF98
F0000038
F0000078
F0000078
F0000078
F0000078
F0000078
F0000078
F0000078
F0000078
F0000078
F0000078
F0000078
F0000078
F0000078
F0000078
F0000078
F0000078
E0000038
DFFFFFD8
BFFFFFE8
3FFFFFE0
1FFFFFC0
ENDCHAR
STARTCHAR 177
ENCODING 177
SWIDTH 1512 0
DWIDTH 21 0
BBX 17 22 2 -1
BITMAP
01C000
01C000
01C000
01C000
01C000
01C000
01C000
FFFF80
FFFF80
FFFF80
01C000
01C000
01C000
01C000
01C000
01C000
01C000
000000
000000
FFFF80
FFFF80
FFFF80
ENDCHAR
STARTCHAR 178
ENCODING 178
SWIDTH 864 0
DWIDTH 12 0
BBX 11 13 0 12
BITMAP
1F80
7FC0
F1E0
E0E0
00E0
01E0
03C0
0780
1F00
3C00
7800
FFE0
FFE0
ENDCHAR
STARTCHAR 179
ENCODING 179
SWIDTH 864 0
DWIDTH 12 0
BBX 11 13 1 12
BITMAP
3F00
7F80
F1C0
E1C0
03C0
0F80
0FC0
01E0
00E0
E0E0
F1E0
7FC0
1F00
ENDCHAR
STARTCHAR 180
ENCODING 180
SWIDTH 864 0
DWIDTH 12 0
BBX 6 5 4 20
BITMAP
3C
38
70
60
E0
ENDCHAR
STARTCHAR 181
ENCODING 181
SWIDTH 1440 0
DWIDTH 20 0
BBX 17 20 2 -2
BITMAP
E00E00
E00E00
E00E00
E00E00
E00E00
E00E00
E00E00
E00E00
E00E00
E00E00
E00E00
E00E00
E00E00
E00E00
E01E00
F87E00
FFFF80
FFEF80
EF8780
E00000
ENDCHAR
STARTCHAR 182
ENCODING 182
SWIDTH 1368 0
DWIDTH 19 0
BBX 19 27 0 -2
BITMAP
07FFE0
1FFFE0
3FFFE0
7F8700
7F8700
FF8700
FF8700
FF8700
FF8700
FF8700
FF8700
7F8700
7F8700
3F8700
0F8700
038700
038700
038700
038700
038700
038700
038700
038700
038700
038700
038700
038700
ENDCHAR
STARTCHAR 183
ENCODING 183
SWIDTH 720 0
DWIDTH 10 0
BBX 3 4 3 9
BITMAP
E0
E0
E0
E0
ENDCHAR
STARTCHAR 184
ENCODING 184
SWIDTH 864 0
DWIDTH 12 0
BBX 2 1 4 -2
BITMAP
C0
ENDCHAR
STARTCHAR 185
ENCODING 185
SWIDTH 864 0
DWIDTH 12 0
BBX 6 13 2 12
BITMAP
0C
1C
3C
FC
FC
1C
1C
1C
1C
1C
1C
1C
1C
ENDCHAR
STARTCHAR 186
ENCODING 186
SWIDTH 936 0
DWIDTH 13 0
BBX 12 17 1 8
BITMAP
1F80
3FC0
70E0
70E0
E070
E070
E070
E070
E070
70E0
70E0
3FC0
1F80
0000
0000
7FE0
7FE0
ENDCHAR
STARTCHAR 187
ENCODING 187
SWIDTH 1440 0
DWIDTH 20 0
BBX 15 16 2 0
BITMAP
E1C0
70E0
3060
3870
1C38
1C38
0E1C
070E
070E
0E1C
1C38
1C38
3870
3060
70E0
E1C0
ENDCHAR
STARTCHAR 188
ENCODING 188
SWIDTH 2160 0
DWIDTH 30 0
BBX 27 26 2 -1
BITMAP
0C000E00
1C000C00
3C001800
FC003000
FC007000
1C006000
1C00C000
1C01C000
1C018000
1C030000
1C060000
1C0E0000
1C0C0000
00180380
00380780
00300F80
00600F80
00C01B80
01C03B80
01807380
0300E380
0600FFE0
0600FFE0
0C000380
18000380
38000380
ENDCHAR
STARTCHAR 189
ENCODING 189
SWIDTH 2160 0
DWIDTH 30 0
BBX 27 26 2 -1
BITMAP
0C000E00
1C000C00
3C001800
FC003000
FC007000
1C006000
1C00C000
1C01C000
1C018000
1C030000
1C060000
1C0E0000
1C0C0000
00181F80
00387FC0
0030F1E0
0060E0E0
00C000E0
01C001E0
018003C0
03000780
06001F00
06003C00
0C007800
1800FFE0
3800FFE0
ENDCHAR
STARTCHAR 190
ENCODING 190
SWIDTH 2160 0
DWIDTH 30 0
BBX 28 26 1 -1
BITMAP
3F000380
7F800300
F1C00600
E1C00C00
03C01C00
0F801800
0FC03000
01E07000
00E06000
E0E0C000
F1E18000
7FC38000
1F030000
000601C0
000E03C0
000C07C0
001807C0
00300DC0
00701DC0
006039C0
00C071C0
01807FF0
01807FF0
030001C0
060001C0
0E0001C0
ENDCHAR
STARTCHAR 191
ENCODING 191
SWIDTH 1440 0
DWIDTH 20 0
BBX 16 20 2 -2
BITMAP
01C0
01C0
01C0
01C0
0000
0000
0000
01C0
01C0
01C0
03C0
0380
0700
1E00
3C00
7800
7000
E000
E000
E007
ENDCHAR
STARTCHAR 192
ENCODING 192
SWIDTH 1728 0
DWIDTH 24 0
BBX 24 32 0 -1
BITMAP
00F000
007000
003800
001800
001C00
000000
003C00
007C00
006E00
006E00
00E600
00C700
01C700
01C380
018380
038180
0381C0
0701C0
0700E0
0700E0
0E00E0
0FFFF0
0FFFF0
1FFFF8
1C0038
380038
38001C
38001C
70001E
70000E
70000E
E00007
ENDCHAR
STARTCHAR 193
ENCODING 193
SWIDTH 1728 0
DWIDTH 24 0
BBX 24 32 0 -1
BITMAP
000F00
000E00
001C00
001800
003800
000000
003C00
007C00
006E00
006E00
00E600
00C700
01C700
01C380
018380
038180
0381C0
0701C0
0700E0
0700E0
0E00E0
0FFFF0
0FFFF0
1FFFF8
1C0038
380038
38001C
38001C
70001E
70000E
70000E
E00007
ENDCHAR
STARTCHAR 194
ENCODING 194
SWIDTH 1728 0
DWIDTH 24 0
BBX 24 32 0 -1
BITMAP
007C00
007C00
00EE00
01EF00
03C780
000000
003C00
007C00
006E00
006E00
00E600
00C700
01C700
01C380
018380
038180
0381C0
0701C0
0700E0
0700E0
0E00E0
0FFFF0
0FFFF0
1FFFF8
1C0038
380038
38001C
38001C
70001E
70000E
70000E
E00007
ENDCHAR
STARTCHAR 195
ENCODING 195
SWIDTH 1728 0
DWIDTH 24 0
BBX 24 32 0 -1
BITMAP
00F0C0
01FFC0
03FF80
030F00
000000
000000
003C00
007C00
006E00
006E00
00E600
00C700
01C700
01C380
018380
038180
0381C0
0701C0
0700E0
0700E0
0E00E0
0FFFF0
0FFFF0
1FFFF8
1C0038
380038
38001C
38001C
70001E
70000E
70000E
E00007
ENDCHAR
STARTCHAR 196
ENCODING 196
SWIDTH 1728 0
DWIDTH 24 0
BBX 24 32 0 -1
BITMAP
01C380
01C380
01C380
01C380
000000
000000
003C00
007C00
006E00
006E00
00E600
00C700
01C700
01C380
018380
038180
0381C0
0701C0
0700E0
0700E0
0E00E0
0FFFF0
0FFFF0
1FFFF8
1C0038
380038
38001C
38001C
70001E
70000E
70000E
E00007
ENDCHAR
STARTCHAR 197
ENCODING 197
SWIDTH 1728 0
DWIDTH 24 0
BBX 24 32 0 -1
BITMAP
003C00
006600
004200
004200
006600
003C00
003C00
007C00
006E00
006E00
00E600
00C700
01C700
01C380
018380
038180
0381C0
0701C0
0700E0
0700E0
0E00E0
0FFFF0
0FFFF0
1FFFF8
1C0038
380038
38001C
38001C
70001E
70000E
70000E
E00007
ENDCHAR
STARTCHAR 198
ENCODING 198
SWIDTH 2592 0
DWIDTH 36 0
BBX 34 26 0 -1
BITMAP
0001FFFF80
0003FFFF80
0003FFFF80
0007700000
0006700000
000E700000
001C700000
001C700000
0038700000
0038700000
0070700000
00607FFF00
00E07FFF00
01C07FFF00
01C0700000
03FFF00000
03FFF00000
07FFF00000
0F00700000
0E00700000
1C00700000
1C00700000
3800700000
78007FFFC0
70007FFFC0
F0007FFFC0
ENDCHAR
STARTCHAR 199
ENCODING 199
SWIDTH 1872 0
DWIDTH 26 0
BBX 22 27 2 -2
BITMAP
00FE00
03FFC0
0FFFE0
1F81F0
3E0078
380038
78001C
70001C
700000
E00000
E00000
E00000
E00000
E00000
E00000
E00000
E00000
700000
70001C
78001C
380038
3E0078
1F81F0
0FFFE0
07FFC0
00FF00
003000
ENDCHAR
STARTCHAR 200
ENCODING 200
SWIDTH 1728 0
DWIDTH 24 0
BBX 19 32 3 -1
BITMAP
078000
038000
01C000
00C000
00E000
000000
FFFFC0
FFFFC0
FFFFC0
E00000
E00000
E00000
E00000
E00000
E00000
E00000
E00000
FFFF80
FFFF80
FFFF80
E00000
E00000
E00000
E00000
E00000
E00000
E00000
E00000
E00000
FFFFE0
FFFFE0
FFFFE0
ENDCHAR
STARTCHAR 201
ENCODING 201
SWIDTH 1728 0
DWIDTH 24 0
BBX 19 32 3 -1
BITMAP
003C00
003800
007000
006000
00E000
000000
FFFFC0
FFFFC0
FFFFC0
E00000
E00000
E00000
E00000
E00000
E00000
E00000
E00000
FFFF80
FFFF80
FFFF80
E00000
E00000
E00000
E00000
E00000
E00000
E00000
E00000
E00000
FFFFE0
FFFFE0
FFFFE0
ENDCHAR
STARTCHAR 202
ENCODING 202
SWIDTH 1728 0
DWIDTH 24 0
BBX 19 32 3 -1
BITMAP
01F000
01F000
03B800
07BC00
0F1E00
000000
FFFFC0
FFFFC0
FFFFC0
E00000
E00000
E00000
E00000
E00000
E00000
E00000
E00000
FFFF80
FFFF80
FFFF80
E00000
E00000
E00000
E00000
E00000
E00000
E00000
E00000
E00000
FFFFE0
FFFFE0
FFFFE0
ENDCHAR
STARTCHAR 203
ENCODING 203
SWIDTH 1728 0
DWIDTH 24 0
BBX 19 32 3 -1
BITMAP
070E00
070E00
070E00
070E00
000000
000000
FFFFC0
FFFFC0
FFFFC0
E00000
E00000
E00000
E00000
E00000
E00000
E00000
E00000
FFFF80
FFFF80
FFFF80
E00000
E00000
E00000
E00000
E00000
E00000
E00000
E00000
E00000
FFFFE0
FFFFE0
FFFFE0
ENDCHAR
STARTCHAR 204
ENCODING 204
SWIDTH 648 0
DWIDTH 9 0
BBX 6 32 0 -1
BITMAP
F0
70
38
18
1C
00
1C
1C
1C
1C
1C
1C
1C
1C
1C
1C
1C
1C
1C
1C
1C
1C
1C
1C
1C
1C
1C
1C
1C
1C
1C
1C
ENDCHAR
STARTCHAR 205
ENCODING 205
SWIDTH 648 0
DWIDTH 9 0
BBX 6 32 3 -1
BITMAP
3C
38
70
60
E0
00
E0
E0
E0
E0
E0
E0
E0
E0
E0
E0
E0
E0
E0
E0
E0
E0
E0
E0
E0
E0
E0
E0
E0
E0
E0
E0
ENDCHAR
STARTCHAR 206
ENCODING 206
SWIDTH 648 0
DWIDTH 9 0
BBX 9 32 0 -1
BITMAP
3E00
3E00
7700
F780
E380
0000
1C00
1C00
1C00
1C00
1C00
1C00
1C00
1C00
1C00
1C00
1C00
1C00
1C00
1C00
1C00
1C00
1C00
1C00
1C00
1C00
1C00
1C00
1C00
1C00
1C00
1C00
ENDCHAR
STARTCHAR 207
ENCODING 207
SWIDTH 648 0
DWIDTH 9 0
BBX 9 32 0 -1
BITMAP
E380
E380
E380
E380
0000
0000
1C00
1C00
1C00
1C00
1C00
1C00
1C00
1C00
1C00
1C00
1C00
1C00
1C00
1C00
1C00
1C00
1C00
1C00
1C00
1C00
1C00
1C00
1C00
1C00
1C00
1C00
ENDCHAR
STARTCHAR 208
ENCODING 208
SWIDTH 1872 0
DWIDTH 26 0
BBX 24 26 0 -1
BITMAP
1FFF00
1FFFC0
1FFFF0
1C01F8
1C003C
1C001C
1C000E
1C000E
1C000F
1C0007
1C0007
FFF807
FFF807
FFF807
1C0007
1C0007
1C0007
1C000F
1C000E
1C001E
1C001C
1C003C
1C01F8
1FFFF0
1FFFC0
1FFF00
ENDCHAR
STARTCHAR 209
ENCODING 209
SWIDTH 1872 0
DWIDTH 26 0
BBX 20 32 3 -1
BITMAP
01E180
03FF80
07FF00
061E00
000000
000000
F00070
F00070
F80070
FC0070
FC0070
FE0070
EE0070
E70070
E78070
E38070
E1C070
E1E070
E0E070
E07070
E07870
E03870
E01C70
E01E70
E00E70
E00770
E007F0
E003F0
E003F0
E001F0
E000F0
E000F0
ENDCHAR
STARTCHAR 210
ENCODING 210
SWIDTH 2016 0
DWIDTH 28 0
BBX 24 32 2 -1
BITMAP
00F000
007000
003800
001800
001C00
000000
00FF00
03FFC0
07FFF0
1F81F8
1E0078
3C003C
78001E
70000E
70000E
E00007
E00007
E00007
E00007
E00007
E00007
E00007
E00007
70000E
70000E
78001E
3C003C
1E0078
1F81F8
07FFF0
03FFC0
00FF00
ENDCHAR
STARTCHAR 211
ENCODING 211
SWIDTH 2016 0
DWIDTH 28 0
BBX 24 32 2 -1
BITMAP
000780
000700
000E00
000C00
001C00
000000
00FF00
03FFC0
07FFF0
1F81F8
1E0078
3C003C
78001E
70000E
70000E
E00007
E00007
E00007
E00007
E00007
E00007
E00007
E00007
70000E
70000E
78001E
3C003C
1E0078
1F81F8
07FFF0
03FFC0
00FF00
ENDCHAR
STARTCHAR 212
ENCODING 212
SWIDTH 2016 0
DWIDTH 28 0
BBX 24 32 2 -1
BITMAP
003E00
003E00
007700
00F780
01E3C0
000000
00FF00
03FFC0
07FFF0
1F81F8
1E0078
3C003C
78001E
70000E
70000E
E00007
E00007
E00007
E00007
E00007
E00007
E00007
E00007
70000E
70000E
78001E
3C003C
1E0078
1F81F8
07FFF0
03FFC0
00FF00
ENDCHAR
STARTCHAR 213
ENCODING 213
SWIDTH 2016 0
DWIDTH 28 0
BBX 24 32 2 -1
BITMAP
00F0C0
01FFC0
03FF80
030F00
000000
000000
00FF00
03FFC0
07FFF0
1F81F8
1E0078
3C003C
78001E
70000E
70000E
E00007
E00007
E00007
E00007
E00007
E00007
E00007
E00007
70000E
70000E
78001E
3C003C
1E0078
1F81F8
07FFF0
03FFC0
00FF00
ENDCHAR
STARTCHAR 214
ENCODING 214
SWIDTH 2016 0
DWIDTH 28 0
BBX 24 32 2 -1
BITMAP
01C380
01C380
01C380
01C380
000000
000000
00FF00
03FFC0
07FFF0
1F81F8
1E0078
3C003C
78001E
70000E
70000E
E00007
E00007
E00007
E00007
E00007
E00007
E00007
E00007
70000E
70000E
78001E
3C003C
1E0078
1F81F8
07FFF0
03FFC0
00FF00
ENDCHAR
STARTCHAR 215
ENCODING 215
SWIDTH 1512 0
DWIDTH 21 0
BBX 15 15 3 4
BITMAP
600C
F01E
F83E
7C7C
3EF8
1FF0
0FE0
07C0
0FE0
1FF0
3EF8
7C7C
F83E
F01E
600C
ENDCHAR
STARTCHAR 216
ENCODING 216
SWIDTH 2016 0
DWIDTH 28 0
BBX 24 26 2 -1
BITMAP
00FF03
03FFC7
07FFEE
1F81FC
1E0078
3C003C
78007E
7000CE
70018E
E00307
E00707
E00E07
E01C07
E03807
E07007
E0E007
E0C007
71800E
73000E
7E001E
3C003C
1E0078
3F81F8
77FFF0
E3FFC0
C0FF00
ENDCHAR
STARTCHAR 217
ENCODING 217
SWIDTH 1872 0
DWIDTH 26 0
BBX 20 32 3 -1
BITMAP
03C000
01C000
00E000
006000
007000
000000
E00070
E00070
E00070
E00070
E00070
E00070
E00070
E00070
E00070
E00070
E00070
E00070
E00070
E00070
E00070
E00070
E00070
E00070
E00070
F000F0
7000E0
7801E0
3E07C0
1FFFC0
0FFF00
03FC00
ENDCHAR
STARTCHAR 218
ENCODING 218
SWIDTH 1872 0
DWIDTH 26 0
BBX 20 32 3 -1
BITMAP
001E00
001C00
003800
003000
007000
000000
E00070
E00070
E00070
E00070
E00070
E00070
E00070
E00070
E00070
E00070
E00070
E00070
E00070
E00070
E00070
E00070
E00070
E00070
E00070
F000F0
7000E0
7801E0
3E07C0
1FFFC0
0FFF00
03FC00
ENDCHAR
STARTCHAR 219
ENCODING 219
SWIDTH 1872 0
DWIDTH 26 0
BBX 20 32 3 -1
BITMAP
00F800
00F800
01DC00
03DE00
078F00
000000
E00070
E00070
E00070
E00070
E00070
E00070
E00070
E00070
E00070
E00070
E00070
E00070
E00070
E00070
E00070
E00070
E00070
E00070
E00070
F000F0
7000E0
7801E0
3E07C0
1FFFC0
0FFF00
03FC00
ENDCHAR
STARTCHAR 220
ENCODING 220
SWIDTH 1872 0
DWIDTH 26 0
BBX 20 32 3 -1
BITMAP
070E00
070E00
070E00
070E00
000000
000000
E00070
E00070
E00070
E00070
E00070
E00070
E00070
E00070
E00070
E00070
E00070
E00070
E00070
E00070
E00070
E00070
E00070
E00070
E00070
F000F0
7000E0
7801E0
3E07C0
1FFFC0
0FFF00
03FC00
ENDCHAR
STARTCHAR 221
ENCODING 221
SWIDTH 1656 0
DWIDTH 23 0
BBX 23 32 0 -1
BITMAP
000F00
000E00
001C00
001800
003800
000000
F0001E
70001C
380038
3C0078
1C0070
0E00E0
0F01E0
0701C0
038380
038380
01C700
00EE00
00EE00
007C00
003800
003800
003800
003800
003800
003800
003800
003800
003800
003800
003800
003800
ENDCHAR
STARTCHAR 222
ENCODING 222
SWIDTH 1728 0
DWIDTH 24 0
BBX 19 26 3 -1
BITMAP
E00000
E00000
E00000
E00000
E00000
FFFC00
FFFF00
FFFF80
E003C0
E001C0
E001E0
E000E0
E000E0
E000E0
E000E0
E001E0
E001C0
E007C0
FFFF80
FFFF00
FFF800
E00000
E00000
E00000
E00000
E00000
ENDCHAR
STARTCHAR 223
ENCODING 223
SWIDTH 1584 0
DWIDTH 22 0
BBX 18 26 2 -1
BITMAP
0FE000
1FF000
3FF800
783C00
701C00
E01C00
E01C00
E03800
E03800
E07000
E06000
E0E000
E0E000
E0F000
E07800
E03E00
E01F00
E00780
E003C0
E001C0
E001C0
E381C0
E3C3C0
E1FF80
E0FF00
E07E00
ENDCHAR
STARTCHAR 224
ENCODING 224
SWIDTH 1440 0
DWIDTH 20 0
BBX 16 26 1 -1
BITMAP
0780
0380
01C0
00C0
00E0
0000
0000
07F0
1FFC
3FFE
3C0F
7007
7007
0007
03FF
1FFF
3FFF
7C07
F007
E007
E007
E00F
F03F
7FFF
3FF7
0FC7
ENDCHAR
STARTCHAR 225
ENCODING 225
SWIDTH 1440 0
DWIDTH 20 0
BBX 16 26 1 -1
BITMAP
0078
0070
00E0
00C0
01C0
0000
0000
07F0
1FFC
3FFE
3C0F
7007
7007
0007
03FF
1FFF
3FFF
7C07
F007
E007
E007
E00F
F03F
7FFF
3FF7
0FC7
ENDCHAR
STARTCHAR 226
ENCODING 226
SWIDTH 1440 0
DWIDTH 20 0
BBX 16 26 1 -1
BITMAP
03E0
03E0
0770
0F78
1E3C
0000
0000
07F0
1FFC
3FFE
3C0F
7007
7007
0007
03FF
1FFF
3FFF
7C07
F007
E007
E007
E00F
F03F
7FFF
3FF7
0FC7
ENDCHAR
STARTCHAR 227
ENCODING 227
SWIDTH 1440 0
DWIDTH 20 0
BBX 16 26 1 -1
BITMAP
0786
0FFE
1FFC
1878
0000
0000
0000
07F0
1FFC
3FFE
3C0F
7007
7007
0007
03FF
1FFF
3FFF
7C07
F007
E007
E007
E00F
F03F
7FFF
3FF7
0FC7
ENDCHAR
STARTCHAR 228
ENCODING 228
SWIDTH 1440 0
DWIDTH 20 0
BBX 16 26 1 -1
BITMAP
0E1C
0E1C
0E1C
0E1C
0000
0000
0000
07F0
1FFC
3FFE
3C0F
7007
7007
0007
03FF
1FFF
3FFF
7C07
F007
E007
E007
E00F
F03F
7FFF
3FF7
0FC7
ENDCHAR
STARTCHAR 229
ENCODING 229
SWIDTH 1440 0
DWIDTH 20 0
BBX 16 27 1 -1
BITMAP
01E0
0330
0210
0210
0330
01E0
0000
0000
07F0
1FFC
3FFE
3C0F
7007
7007
0007
03FF
1FFF
3FFF
7C07
F007
E007
E007
E00F
F03F
7FFF
3FF7
0FC7
ENDCHAR
STARTCHAR 230
ENCODING 230
SWIDTH 2304 0
DWIDTH 32 0
BBX 29 19 1 -1
BITMAP
07F07E00
1FF9FF80
3FFFFFE0
3C1FC1E0
700F80F0
700F0070
000E0038
07FE0038
1FFFFFF8
3FFFFFF8
7C0FFFF8
F00E0000
E00E0000
E00F0038
E01F8078
F07FC0F0
7FFBFFE0
3FF1FFC0
1FC07F00
ENDCHAR
STARTCHAR 231
ENCODING 231
SWIDTH 1296 0
DWIDTH 18 0
BBX 16 20 1 -2
BITMAP
07F0
1FFC
3FFE
3C1E
780F
7007
E000
E000
E000
E000
E000
E000
E000
7007
780F
3C1E
3FFE
1FFC
07F0
0180
ENDCHAR
STARTCHAR 232
ENCODING 232
SWIDTH 1440 0
DWIDTH 20 0
BBX 17 26 1 -1
BITMAP
0F0000
070000
038000
018000
01C000
000000
000000
07F000
0FF800
3FFE00
3C1E00
780F00
700700
E00380
E00380
FFFF80
FFFF80
FFFF80
E00000
E00000
700380
780780
3C0F00
3FFE00
0FFC00
03F000
ENDCHAR
STARTCHAR 233
ENCODING 233
SWIDTH 1440 0
DWIDTH 20 0
BBX 17 26 1 -1
BITMAP
007800
007000
00E000
00C000
01C000
000000
000000
07F000
0FF800
3FFE00
3C1E00
780F00
700700
E00380
E00380
FFFF80
FFFF80
FFFF80
E00000
E00000
700380
780780
3C0F00
3FFE00
0FFC00
03F000
ENDCHAR
STARTCHAR 234
ENCODING 234
SWIDTH 1440 0
DWIDTH 20 0
BBX 17 26 1 -1
BITMAP
03E000
03E000
077000
0F7800
1E3C00
000000
000000
07F000
0FF800
3FFE00
3C1E00
780F00
700700
E00380
E00380
FFFF80
FFFF80
FFFF80
E00000
E00000
700380
780780
3C0F00
3FFE00
0FFC00
03F000
ENDCHAR
STARTCHAR 235
ENCODING 235
SWIDTH 1440 0
DWIDTH 20 0
BBX 17 26 1 -1
BITMAP
0E1C00
0E1C00
0E1C00
0E1C00
000000
000000
000000
07F000
0FF800
3FFE00
3C1E00
780F00
700700
E00380
E00380
FFFF80
FFFF80
FFFF80
E00000
E00000
700380
780780
3C0F00
3FFE00
0FFC00
03F000
ENDCHAR
STARTCHAR 236
ENCODING 236
SWIDTH 576 0
DWIDTH 8 0
BBX 5 26 0 -1
BITMAP
E0
E0
70
30
38
00
00
38
38
38
38
38
38
38
38
38
38
38
38
38
38
38
38
38
38
38
ENDCHAR
STARTCHAR 237
ENCODING 237
SWIDTH 576 0
DWIDTH 8 0
BBX 6 26 2 -1
BITMAP
3C
38
70
60
E0
00
00
E0
E0
E0
E0
E0
E0
E0
E0
E0
E0
E0
E0
E0
E0
E0
E0
E0
E0
E0
ENDCHAR
STARTCHAR 238
ENCODING 238
SWIDTH 576 0
DWIDTH 8 0
BBX 8 26 0 -1
BITMAP
7C
7C
EE
EF
C7
00
00
38
38
38
38
38
38
38
38
38
38
38
38
38
38
38
38
38
38
38
ENDCHAR
STARTCHAR 239
ENCODING 239
SWIDTH 576 0
DWIDTH 8 0
BBX 8 26 0 -1
BITMAP
C3
C3
C3
C3
00
00
00
38
38
38
38
38
38
38
38
38
38
38
38
38
38
38
38
38
38
38
ENDCHAR
STARTCHAR 240
ENCODING 240
SWIDTH 1440 0
DWIDTH 20 0
BBX 17 26 1 -1
BITMAP
0F0800
03BC00
01F000
03E000
0F7000
043800
001C00
07FC00
1FFE00
3FFE00
3C1F00
780F00
700700
E00380
E00380
E00380
E00380
E00380
E00380
E00380
700700
780F00
3C1E00
3FFE00
1FFC00
07F000
ENDCHAR
STARTCHAR 241
ENCODING 241
SWIDTH 1440 0
DWIDTH 20 0
BBX 15 26 2 -1
BITMAP
0F0C
1FFC
3FF8
30F0
0000
0000
0000
E3F0
EFF8
FFFC
FC1C
F81E
E00E
E00E
E00E
E00E
E00E
E00E
E00E
E00E
E00E
E00E
E00E
E00E
E00E
E00E
ENDCHAR
STARTCHAR 242
ENCODING 242
SWIDTH 1440 0
DWIDTH 20 0
BBX 17 26 1 -1
BITMAP
0F0000
070000
038000
018000
01C000
000000
000000
07F000
1FFC00
3FFE00
3C1E00
780F00
700700
E00380
E00380
E00380
E00380
E00380
E00380
E00380
700700
780F00
3C1E00
3FFE00
1FFC00
07F000
ENDCHAR
STARTCHAR 243
ENCODING 243
SWIDTH 1440 0
DWIDTH 20 0
BBX 17 26 1 -1
BITMAP
007800
007000
00E000
00C000
01C000
000000
000000
07F000
1FFC00
3FFE00
3C1E00
780F00
700700
E00380
E00380
E00380
E00380
E00380
E00380
E00380
700700
780F00
3C1E00
3FFE00
1FFC00
07F000
ENDCHAR
STARTCHAR 244
ENCODING 244
SWIDTH 1440 0
DWIDTH 20 0
BBX 17 26 1 -1
BITMAP
03E000
03E000
077000
0F7800
1E3C00
000000
000000
07F000
1FFC00
3FFE00
3C1E00
780F00
700700
E00380
E00380
E00380
E00380
E00380
E00380
E00380
700700
780F00
3C1E00
3FFE00
1FFC00
07F000
ENDCHAR
STARTCHAR 245
ENCODING 245
SWIDTH 1440 0
DWIDTH 20 0
BBX 17 26 1 -1
BITMAP
078600
0FFE00
1FFC00
187800
000000
000000
000000
07F000
1FFC00
3FFE00
3C1E00
780F00
700700
E00380
E00380
E00380
E00380
E00380
E00380
E00380
700700
780F00
3C1E00
3FFE00
1FFC00
07F000
ENDCHAR
STARTCHAR 246
ENCODING 246
SWIDTH 1440 0
DWIDTH 20 0
BBX 17 26 1 -1
BITMAP
0E1C00
0E1C00
0E1C00
0E1C00
000000
000000
000000
07F000
1FFC00
3FFE00
3C1E00
780F00
700700
E00380
E00380
E00380
E00380
E00380
E00380
E00380
700700
780F00
3C1E00
3FFE00
1FFC00
07F000
ENDCHAR
STARTCHAR 247
ENCODING 247
SWIDTH 1512 0
DWIDTH 21 0
BBX 17 15 2 4
BITMAP
01C000
01C000
01C000
01C000
000000
000000
FFFF80
FFFF80
FFFF80
000000
000000
01C000
01C000
01C000
01C000
ENDCHAR
STARTCHAR 248
ENCODING 248
SWIDTH 1440 0
DWIDTH 20 0
BBX 17 21 1 -2
BITMAP
000100
07F380
1FFF00
3FFE00
3C1E00
780F00
701F00
E03380
E07380
E0E380
E1C380
E38380
E70380
EE0380
7C0700
780F00
7C1E00
3FFE00
7FFC00
E7F000
400000
ENDCHAR
STARTCHAR 249
ENCODING 249
SWIDTH 1440 0
DWIDTH 20 0
BBX 15 26 2 -1
BITMAP
0F00
0700
0380
0180
01C0
0000
0000
E00E
E00E
E00E
E00E
E00E
E00E
E00E
E00E
E00E
E00E
E00E
E00E
E00E
E00E
F01E
707E
7FFE
3FEE
1F8E
ENDCHAR
STARTCHAR 250
ENCODING 250
SWIDTH 1440 0
DWIDTH 20 0
BBX 15 26 2 -1
BITMAP
00F0
00E0
01C0
0180
0380
0000
0000
E00E
E00E
E00E
E00E
E00E
E00E
E00E
E00E
E00E
E00E
E00E
E00E
E00E
E00E
F01E
707E
7FFE
3FEE
1F8E
ENDCHAR
STARTCHAR 251
ENCODING 251
SWIDTH 1440 0
DWIDTH 20 0
BBX 15 26 2 -1
BITMAP
07C0
07C0
0EE0
1EF0
3C78
0000
0000
E00E
E00E
E00E
E00E
E00E
E00E
E00E
E00E
E00E
E00E
E00E
E00E
E00E
E00E
F01E
707E
7FFE
3FEE
1F8E
ENDCHAR
STARTCHAR 252
ENCODING 252
SWIDTH 1440 0
DWIDTH 20 0
BBX 15 26 2 -1
BITMAP
1C38
1C38
1C38
1C38
0000
0000
0000
E00E
E00E
E00E
E00E
E00E
E00E
E00E
E00E
E00E
E00E
E00E
E00E
E00E
E00E
F01E
707E
7FFE
3FEE
1F8E
ENDCHAR
STARTCHAR 253
ENCODING 253
SWIDTH 1296 0
DWIDTH 18 0
BBX 17 27 0 -2
BITMAP
007800
007000
00E000
00C000
01C000
000000
000000
E00380
700700
700700
700700
380E00
380E00
380E00
1C1C00
1C1C00
0C1800
0E3800
0E3800
063000
077000
077000
036000
03E000
03E000
01C000
01C000
ENDCHAR
STARTCHAR 254
ENCODING 254
SWIDTH 1440 0
DWIDTH 20 0
BBX 16 27 2 -2
BITMAP
E000
E000
E000
E000
E000
E000
E000
E3E0
EFF8
FFFC
FC3E
F00E
E00F
E007
E007
E007
E007
E007
E007
E007
E00E
F00E
F83C
FFFC
FFF8
E7E0
E000
ENDCHAR
STARTCHAR 255
ENCODING 255
SWIDTH 1296 0
DWIDTH 18 0
BBX 17 27 0 -2
BITMAP
0E1C00
0E1C00
0E1C00
0E1C00
000000
000000
000000
E00380
700700
700700
700700
380E00
380E00
380E00
1C1C00
1C1C00
0C1800
0E3800
0E3800
063000
077000
077000
036000
03E000
03E000
01C000
01C000
ENDCHAR
ENDFONT
